{"glyphs":{"0":{"ha":876,"x_min":0,"x_max":0,"o":"m 439 -21 b 825 479 710 -21 825 207 b 439 981 825 751 710 981 b 53 479 168 981 53 751 b 439 -21 53 207 168 -21 z m 439 117 b 213 479 269 117 213 279 b 439 843 213 679 269 843 b 664 479 608 843 664 679 b 439 117 664 279 608 117 z "},"1":{"ha":507,"x_min":0,"x_max":0,"o":"m 276 960 b 43 756 267 842 217 756 l 43 640 b 244 696 124 640 188 640 l 244 0 l 406 0 l 406 960 z "},"2":{"ha":783,"x_min":0,"x_max":0,"o":"m 218 619 b 415 843 218 751 272 843 b 576 685 539 843 576 764 b 288 386 576 549 464 503 b 39 0 140 293 39 169 l 728 0 l 728 136 l 249 136 l 249 139 b 738 692 328 335 738 386 b 419 981 738 875 597 981 b 63 619 174 981 63 826 z "},"3":{"ha":803,"x_min":0,"x_max":0,"o":"m 206 669 b 406 843 206 764 254 843 b 569 703 519 843 569 782 b 403 563 569 604 503 563 l 322 563 l 322 435 l 408 435 b 603 274 507 435 603 406 b 403 117 603 172 547 117 b 179 329 239 117 179 200 l 24 329 b 414 -21 24 108 161 -21 b 763 269 622 -21 763 81 b 586 507 763 383 717 469 l 586 510 b 731 715 678 549 731 613 b 411 981 731 885 581 981 b 49 669 171 981 49 849 z "},"4":{"ha":811,"x_min":0,"x_max":0,"o":"m 649 0 l 649 218 l 783 218 l 783 354 l 649 354 l 649 960 l 488 960 l 33 368 l 33 218 l 488 218 l 488 0 z m 488 760 l 488 354 l 176 354 z "},"5":{"ha":790,"x_min":0,"x_max":0,"o":"m 439 647 b 218 564 339 647 268 615 l 218 567 l 269 824 l 701 824 l 701 960 l 149 960 l 44 436 l 207 436 b 396 519 253 493 321 519 b 589 328 513 519 589 458 b 388 117 589 189 506 117 b 188 283 254 117 197 197 l 28 283 b 396 -21 33 118 161 -21 b 750 326 596 -21 750 113 b 439 647 750 514 624 647 z "},"6":{"ha":825,"x_min":0,"x_max":0,"o":"m 214 510 l 214 513 b 431 849 217 688 257 849 b 592 717 532 849 582 790 l 753 717 b 432 981 733 861 613 981 b 53 476 190 981 53 804 b 432 -21 53 189 151 -21 b 779 315 647 -21 779 126 b 461 635 779 504 650 635 b 214 510 350 635 261 588 z m 426 111 b 222 304 299 111 222 190 b 435 503 222 422 307 503 b 622 307 544 503 622 429 b 426 111 622 190 550 111 z "},"7":{"ha":726,"x_min":0,"x_max":0,"o":"m 29 960 l 29 824 l 532 824 l 532 821 b 172 0 361 669 172 317 l 342 0 b 707 838 342 306 489 656 l 707 960 z "},"8":{"ha":822,"x_min":0,"x_max":0,"o":"m 40 271 b 411 -21 40 76 201 -21 b 783 271 621 -21 783 76 b 604 511 783 403 694 471 l 604 514 b 736 718 671 550 736 610 b 411 981 736 883 599 981 b 86 718 224 981 86 883 b 218 514 86 610 150 550 l 218 511 b 40 271 126 471 40 403 z m 411 571 b 238 711 304 571 238 618 b 411 853 238 803 304 853 b 585 711 518 853 585 803 b 411 571 585 618 518 571 z m 411 111 b 200 281 282 111 200 175 b 411 449 200 385 282 449 b 622 281 542 449 622 385 b 411 111 622 175 542 111 z "},"9":{"ha":821,"x_min":0,"x_max":0,"o":"m 613 450 l 613 447 b 396 111 610 272 569 111 b 235 243 294 111 244 169 l 74 243 b 394 -21 93 99 214 -21 b 774 483 636 -21 774 156 b 394 981 774 771 675 981 b 47 644 179 981 47 833 b 365 325 47 456 176 325 b 613 450 476 325 565 372 z m 400 849 b 604 656 528 849 604 769 b 392 457 604 538 519 457 b 204 653 282 457 204 531 b 400 849 204 769 276 849 z "},"A":{"ha":921,"x_min":0,"x_max":0,"o":"m 663 235 l 743 0 l 911 0 l 547 993 l 374 993 l 8 0 l 176 0 l 257 235 z m 303 372 l 460 842 l 463 842 l 618 372 z "},"Á":{"ha":921,"x_min":0,"x_max":0,"o":"m 461 1288 l 401 1106 l 515 1106 l 631 1288 z m 663 235 l 743 0 l 911 0 l 547 993 l 374 993 l 8 0 l 176 0 l 257 235 z m 303 372 l 460 842 l 463 842 l 618 372 z "},"Ă":{"ha":921,"x_min":0,"x_max":0,"o":"m 461 1100 b 651 1288 571 1100 646 1168 l 554 1288 b 461 1200 550 1229 521 1200 b 367 1288 401 1200 371 1229 l 269 1288 b 461 1100 274 1164 353 1100 z m 663 235 l 743 0 l 911 0 l 547 993 l 374 993 l 8 0 l 176 0 l 257 235 z m 303 372 l 460 842 l 463 842 l 618 372 z "},"Â":{"ha":921,"x_min":0,"x_max":0,"o":"m 250 1107 l 388 1107 l 460 1217 l 463 1217 l 536 1107 l 674 1107 l 539 1289 l 385 1289 z m 663 235 l 743 0 l 911 0 l 547 993 l 374 993 l 8 0 l 176 0 l 257 235 z m 303 372 l 460 842 l 463 842 l 618 372 z "},"Ä":{"ha":921,"x_min":0,"x_max":0,"o":"m 261 1208 b 343 1129 261 1167 290 1129 b 424 1208 394 1129 424 1167 b 343 1290 424 1253 394 1290 b 261 1208 290 1290 261 1253 z m 499 1208 b 581 1129 499 1167 528 1129 b 661 1208 632 1129 661 1167 b 581 1290 661 1253 632 1290 b 499 1208 528 1290 499 1253 z m 663 235 l 743 0 l 911 0 l 547 993 l 374 993 l 8 0 l 176 0 l 257 235 z m 303 372 l 460 842 l 463 842 l 618 372 z "},"À":{"ha":921,"x_min":0,"x_max":0,"o":"m 460 1288 l 290 1288 l 406 1106 l 519 1106 z m 663 235 l 743 0 l 911 0 l 547 993 l 374 993 l 8 0 l 176 0 l 257 235 z m 303 372 l 460 842 l 463 842 l 618 372 z "},"Ā":{"ha":921,"x_min":0,"x_max":0,"o":"m 276 1256 l 276 1144 l 647 1144 l 647 1256 z m 663 235 l 743 0 l 911 0 l 547 993 l 374 993 l 8 0 l 176 0 l 257 235 z m 303 372 l 460 842 l 463 842 l 618 372 z "},"Ą":{"ha":921,"x_min":0,"x_max":0,"o":"m 849 -147 b 800 -108 821 -147 800 -133 b 883 0 800 -78 831 -42 l 911 0 l 547 993 l 374 993 l 8 0 l 176 0 l 257 235 l 663 235 l 743 0 l 782 0 b 679 -139 733 -21 679 -74 b 815 -246 679 -204 725 -246 b 913 -232 849 -246 885 -240 l 913 -135 b 849 -147 893 -142 874 -147 z m 303 372 l 460 842 l 463 842 l 618 372 z "},"Å":{"ha":921,"x_min":0,"x_max":0,"o":"m 461 1088 b 589 1214 531 1088 589 1136 b 461 1342 589 1289 531 1342 b 333 1214 392 1342 333 1289 b 461 1088 333 1136 392 1088 z m 461 1149 b 399 1214 428 1149 399 1174 b 461 1279 399 1254 428 1279 b 524 1214 494 1279 524 1254 b 461 1149 524 1174 494 1149 z m 663 235 l 743 0 l 911 0 l 547 993 l 374 993 l 8 0 l 176 0 l 257 235 z m 303 372 l 460 842 l 463 842 l 618 372 z "},"Ã":{"ha":921,"x_min":0,"x_max":0,"o":"m 256 1136 l 349 1136 b 385 1185 349 1156 353 1185 b 557 1133 428 1185 490 1133 b 667 1282 618 1133 667 1174 l 572 1282 b 536 1233 572 1261 568 1233 b 364 1285 494 1233 431 1285 b 256 1136 304 1285 256 1242 z m 663 235 l 743 0 l 911 0 l 547 993 l 374 993 l 8 0 l 176 0 l 257 235 z m 303 372 l 460 842 l 463 842 l 618 372 z "},"Æ":{"ha":1381,"x_min":0,"x_max":0,"o":"m 764 140 l 764 442 l 1249 442 l 1249 583 l 764 583 l 764 853 l 1317 853 l 1317 993 l 382 993 l 13 -1 l 181 -1 l 261 235 l 599 235 l 599 0 l 1331 0 l 1331 140 z m 307 371 l 468 850 l 599 850 l 599 371 z "},"B":{"ha":907,"x_min":0,"x_max":0,"o":"m 833 743 b 511 993 833 903 715 993 l 85 993 l 85 0 l 535 0 b 872 290 740 0 872 99 b 679 533 872 439 783 515 l 679 536 b 833 743 761 564 833 621 z m 250 582 l 250 853 l 515 853 b 668 717 614 853 668 804 b 506 582 668 629 624 582 z m 250 458 l 540 458 b 707 300 644 458 707 401 b 522 140 707 207 664 140 l 250 140 z "},"C":{"ha":979,"x_min":0,"x_max":0,"o":"m 776 651 l 942 651 b 514 1014 918 854 765 1014 b 47 497 228 1014 47 796 b 514 -21 47 197 228 -21 b 942 363 767 -21 919 139 l 776 363 b 510 121 765 242 694 121 b 211 497 296 121 211 300 b 510 872 211 693 296 872 b 776 651 693 872 758 751 z "},"Ć":{"ha":979,"x_min":0,"x_max":0,"o":"m 515 1288 l 456 1106 l 569 1106 l 685 1288 z m 776 651 l 942 651 b 514 1014 918 854 765 1014 b 47 497 228 1014 47 796 b 514 -21 47 197 228 -21 b 942 363 767 -21 919 139 l 776 363 b 510 121 765 242 694 121 b 211 497 296 121 211 300 b 510 872 211 693 296 872 b 776 651 693 872 758 751 z "},"Č":{"ha":979,"x_min":0,"x_max":0,"o":"m 304 1288 l 439 1106 l 593 1106 l 728 1288 l 590 1288 l 517 1178 l 514 1178 l 442 1288 z m 776 651 l 942 651 b 514 1014 918 854 765 1014 b 47 497 228 1014 47 796 b 514 -21 47 197 228 -21 b 942 363 767 -21 919 139 l 776 363 b 510 121 765 242 694 121 b 211 497 296 121 211 300 b 510 872 211 693 296 872 b 776 651 693 872 758 751 z "},"Ç":{"ha":979,"x_min":0,"x_max":0,"o":"m 510 121 b 211 497 296 121 211 300 b 510 872 211 693 296 872 b 776 651 693 872 758 751 l 942 651 b 514 1014 918 854 765 1014 b 47 497 228 1014 47 796 b 474 -19 47 211 211 0 l 401 -110 l 421 -139 b 474 -129 435 -133 458 -129 b 539 -167 517 -129 539 -140 b 467 -214 539 -196 506 -214 b 365 -193 426 -214 396 -206 l 332 -233 b 483 -274 367 -257 424 -274 b 639 -168 564 -274 639 -235 b 499 -82 639 -96 560 -74 l 499 -79 l 547 -19 b 942 363 781 -7 921 149 l 776 363 b 510 121 765 242 694 121 z "},"Ċ":{"ha":979,"x_min":0,"x_max":0,"o":"m 433 1208 b 515 1129 433 1167 463 1129 b 596 1208 567 1129 596 1167 b 515 1290 596 1253 567 1290 b 433 1208 463 1290 433 1253 z m 776 651 l 942 651 b 514 1014 918 854 765 1014 b 47 497 228 1014 47 796 b 514 -21 47 197 228 -21 b 942 363 767 -21 919 139 l 776 363 b 510 121 765 242 694 121 b 211 497 296 121 211 300 b 510 872 211 693 296 872 b 776 651 693 872 758 751 z "},"D":{"ha":960,"x_min":0,"x_max":0,"o":"m 85 0 l 475 0 b 913 496 750 0 913 176 b 471 993 913 815 744 993 l 85 993 z m 250 853 l 463 853 b 747 496 685 853 747 686 b 463 140 747 306 685 140 l 250 140 z "},"Ð":{"ha":971,"x_min":0,"x_max":0,"o":"m 482 993 l 96 993 l 96 567 l 6 567 l 6 461 l 96 461 l 96 0 l 486 0 b 924 496 761 0 924 176 b 482 993 924 815 756 993 z m 474 140 l 261 140 l 261 461 l 540 461 l 540 567 l 261 567 l 261 853 l 474 853 b 758 496 696 853 758 686 b 474 140 758 306 696 140 z "},"Ď":{"ha":960,"x_min":0,"x_max":0,"o":"m 181 1288 l 315 1106 l 469 1106 l 604 1288 l 467 1288 l 393 1178 l 390 1178 l 318 1288 z m 85 0 l 475 0 b 913 496 750 0 913 176 b 471 993 913 815 744 993 l 85 993 z m 250 853 l 463 853 b 747 496 685 853 747 686 b 463 140 747 306 685 140 l 250 140 z "},"Đ":{"ha":971,"x_min":0,"x_max":0,"o":"m 482 993 l 96 993 l 96 567 l 6 567 l 6 461 l 96 461 l 96 0 l 486 0 b 924 496 761 0 924 176 b 482 993 924 815 756 993 z m 474 140 l 261 140 l 261 461 l 540 461 l 540 567 l 261 567 l 261 853 l 474 853 b 758 496 696 853 758 686 b 474 140 758 306 696 140 z "},"E":{"ha":867,"x_min":0,"x_max":0,"o":"m 250 583 l 250 853 l 803 853 l 803 993 l 85 993 l 85 0 l 817 0 l 817 140 l 250 140 l 250 442 l 735 442 l 735 583 z "},"É":{"ha":867,"x_min":0,"x_max":0,"o":"m 451 1288 l 392 1106 l 506 1106 l 621 1288 z m 250 583 l 250 853 l 803 853 l 803 993 l 85 993 l 85 0 l 817 0 l 817 140 l 250 140 l 250 442 l 735 442 l 735 583 z "},"Ě":{"ha":867,"x_min":0,"x_max":0,"o":"m 240 1288 l 375 1106 l 529 1106 l 664 1288 l 526 1288 l 453 1178 l 450 1178 l 378 1288 z m 250 583 l 250 853 l 803 853 l 803 993 l 85 993 l 85 0 l 817 0 l 817 140 l 250 140 l 250 442 l 735 442 l 735 583 z "},"Ê":{"ha":867,"x_min":0,"x_max":0,"o":"m 240 1107 l 378 1107 l 450 1217 l 453 1217 l 526 1107 l 664 1107 l 529 1289 l 375 1289 z m 250 583 l 250 853 l 803 853 l 803 993 l 85 993 l 85 0 l 817 0 l 817 140 l 250 140 l 250 442 l 735 442 l 735 583 z "},"Ë":{"ha":867,"x_min":0,"x_max":0,"o":"m 251 1208 b 333 1129 251 1167 281 1129 b 414 1208 385 1129 414 1167 b 333 1290 414 1253 385 1290 b 251 1208 281 1290 251 1253 z m 489 1208 b 571 1129 489 1167 518 1129 b 651 1208 622 1129 651 1167 b 571 1290 651 1253 622 1290 b 489 1208 518 1290 489 1253 z m 250 583 l 250 853 l 803 853 l 803 993 l 85 993 l 85 0 l 817 0 l 817 140 l 250 140 l 250 442 l 735 442 l 735 583 z "},"Ė":{"ha":867,"x_min":0,"x_max":0,"o":"m 369 1208 b 451 1129 369 1167 399 1129 b 532 1208 503 1129 532 1167 b 451 1290 532 1253 503 1290 b 369 1208 399 1290 369 1253 z m 250 583 l 250 853 l 803 853 l 803 993 l 85 993 l 85 0 l 817 0 l 817 140 l 250 140 l 250 442 l 735 442 l 735 583 z "},"È":{"ha":867,"x_min":0,"x_max":0,"o":"m 450 1288 l 281 1288 l 396 1106 l 510 1106 z m 250 583 l 250 853 l 803 853 l 803 993 l 85 993 l 85 0 l 817 0 l 817 140 l 250 140 l 250 442 l 735 442 l 735 583 z "},"Ē":{"ha":867,"x_min":0,"x_max":0,"o":"m 267 1256 l 267 1144 l 638 1144 l 638 1256 z m 250 583 l 250 853 l 803 853 l 803 993 l 85 993 l 85 0 l 817 0 l 817 140 l 250 140 l 250 442 l 735 442 l 735 583 z "},"Ę":{"ha":867,"x_min":0,"x_max":0,"o":"m 771 -147 b 722 -108 743 -147 722 -133 b 806 0 722 -78 753 -42 l 817 0 l 817 140 l 250 140 l 250 442 l 735 442 l 735 583 l 250 583 l 250 853 l 803 853 l 803 993 l 85 993 l 85 0 l 704 0 b 601 -139 656 -21 601 -74 b 738 -246 601 -204 647 -246 b 835 -232 771 -246 807 -240 l 835 -135 b 771 -147 815 -142 796 -147 z "},"F":{"ha":814,"x_min":0,"x_max":0,"o":"m 250 564 l 250 853 l 779 853 l 779 993 l 85 993 l 85 0 l 250 0 l 250 422 l 679 422 l 679 564 z "},"G":{"ha":1028,"x_min":0,"x_max":0,"o":"m 776 683 l 942 683 b 514 1014 911 874 772 1014 b 47 497 228 1014 47 796 b 496 -21 47 197 208 -21 b 806 136 646 -21 739 36 l 808 136 l 844 0 l 958 0 l 958 521 l 510 521 l 510 388 l 790 388 b 507 121 789 229 664 121 b 213 497 281 121 213 310 b 513 872 213 683 300 872 b 776 683 660 872 751 801 z "},"Ğ":{"ha":1028,"x_min":0,"x_max":0,"o":"m 510 1100 b 700 1288 619 1100 694 1168 l 603 1288 b 510 1200 599 1229 569 1200 b 415 1288 450 1200 419 1229 l 318 1288 b 510 1100 322 1164 401 1100 z m 776 683 l 942 683 b 514 1014 911 874 772 1014 b 47 497 228 1014 47 796 b 496 -21 47 197 208 -21 b 806 136 646 -21 739 36 l 808 136 l 844 0 l 958 0 l 958 521 l 510 521 l 510 388 l 790 388 b 507 121 789 229 664 121 b 213 497 281 121 213 310 b 513 872 213 683 300 872 b 776 683 660 872 751 801 z "},"Ģ":{"ha":1028,"x_min":0,"x_max":0,"o":"m 776 683 l 942 683 b 514 1014 911 874 772 1014 b 47 497 228 1014 47 796 b 496 -21 47 197 208 -21 b 806 136 646 -21 739 36 l 808 136 l 844 0 l 958 0 l 958 521 l 510 521 l 510 388 l 790 388 b 507 121 789 229 664 121 b 213 497 281 121 213 310 b 513 872 213 683 300 872 b 776 683 660 872 751 801 z m 526 -228 b 450 -307 526 -275 497 -299 l 450 -365 b 604 -196 565 -349 604 -267 b 517 -76 604 -128 575 -76 b 438 -158 474 -76 438 -111 b 526 -228 438 -215 478 -242 z "},"Ġ":{"ha":1028,"x_min":0,"x_max":0,"o":"m 428 1208 b 510 1129 428 1167 457 1129 b 590 1208 561 1129 590 1167 b 510 1290 590 1253 561 1290 b 428 1208 457 1290 428 1253 z m 776 683 l 942 683 b 514 1014 911 874 772 1014 b 47 497 228 1014 47 796 b 496 -21 47 197 208 -21 b 806 136 646 -21 739 36 l 808 136 l 844 0 l 958 0 l 958 521 l 510 521 l 510 388 l 790 388 b 507 121 789 229 664 121 b 213 497 281 121 213 310 b 513 872 213 683 300 872 b 776 683 660 872 751 801 z "},"H":{"ha":969,"x_min":0,"x_max":0,"o":"m 85 993 l 85 0 l 250 0 l 250 440 l 719 440 l 719 0 l 885 0 l 885 993 l 719 993 l 719 582 l 250 582 l 250 993 z "},"Ħ":{"ha":975,"x_min":0,"x_max":0,"o":"m 975 846 l 885 846 l 885 993 l 719 993 l 719 846 l 250 846 l 250 993 l 85 993 l 85 846 l -6 846 l -6 739 l 85 739 l 85 0 l 250 0 l 250 440 l 719 440 l 719 0 l 885 0 l 885 739 l 975 739 z m 719 582 l 250 582 l 250 739 l 719 739 z "},"I":{"ha":339,"x_min":0,"x_max":0,"o":"m 88 993 l 88 0 l 253 0 l 253 993 z "},"Í":{"ha":339,"x_min":0,"x_max":0,"o":"m 169 1288 l 110 1106 l 224 1106 l 339 1288 z m 88 993 l 88 0 l 253 0 l 253 993 z "},"Î":{"ha":339,"x_min":0,"x_max":0,"o":"m -42 1107 l 96 1107 l 168 1217 l 171 1217 l 244 1107 l 382 1107 l 247 1289 l 93 1289 z m 88 993 l 88 0 l 253 0 l 253 993 z "},"Ï":{"ha":339,"x_min":0,"x_max":0,"o":"m -31 1208 b 51 1129 -31 1167 -1 1129 b 132 1208 103 1129 132 1167 b 51 1290 132 1253 103 1290 b -31 1208 -1 1290 -31 1253 z m 207 1208 b 289 1129 207 1167 236 1129 b 369 1208 340 1129 369 1167 b 289 1290 369 1253 340 1290 b 207 1208 236 1290 207 1253 z m 88 993 l 88 0 l 253 0 l 253 993 z "},"İ":{"ha":339,"x_min":0,"x_max":0,"o":"m 88 1208 b 169 1129 88 1167 117 1129 b 250 1208 221 1129 250 1167 b 169 1290 250 1253 221 1290 b 88 1208 117 1290 88 1253 z m 88 993 l 88 0 l 253 0 l 253 993 z "},"Ì":{"ha":339,"x_min":0,"x_max":0,"o":"m 168 1288 l -1 1288 l 114 1106 l 228 1106 z m 88 993 l 88 0 l 253 0 l 253 993 z "},"Ī":{"ha":339,"x_min":0,"x_max":0,"o":"m -15 1256 l -15 1144 l 356 1144 l 356 1256 z m 88 993 l 88 0 l 253 0 l 253 993 z "},"Į":{"ha":339,"x_min":0,"x_max":0,"o":"m 218 -147 b 169 -108 190 -147 169 -133 b 253 0 169 -78 200 -42 l 253 993 l 88 993 l 88 0 l 151 0 b 49 -139 103 -21 49 -74 b 185 -246 49 -204 94 -246 b 282 -232 218 -246 254 -240 l 282 -135 b 218 -147 263 -142 243 -147 z "},"J":{"ha":711,"x_min":0,"x_max":0,"o":"m 638 311 l 638 993 l 474 993 l 474 311 b 328 121 474 200 451 121 b 183 311 203 121 183 200 l 183 357 l 26 357 l 26 311 b 332 -21 26 140 93 -21 b 638 311 571 -21 638 140 z "},"K":{"ha":918,"x_min":0,"x_max":0,"o":"m 85 993 l 85 0 l 250 0 l 250 293 l 403 457 l 728 0 l 921 0 l 511 572 l 897 993 l 700 993 l 250 503 l 250 993 z "},"Ķ":{"ha":918,"x_min":0,"x_max":0,"o":"m 85 993 l 85 0 l 250 0 l 250 293 l 403 457 l 728 0 l 921 0 l 511 572 l 897 993 l 700 993 l 250 503 l 250 993 z m 500 -228 b 424 -307 500 -275 471 -299 l 424 -365 b 578 -196 539 -349 578 -267 b 490 -76 578 -128 549 -76 b 411 -158 447 -76 411 -111 b 500 -228 411 -215 451 -242 z "},"L":{"ha":775,"x_min":0,"x_max":0,"o":"m 85 993 l 85 0 l 746 0 l 746 140 l 250 140 l 250 993 z "},"Ĺ":{"ha":775,"x_min":0,"x_max":0,"o":"m 169 1288 l 110 1106 l 224 1106 l 339 1288 z m 85 993 l 85 0 l 746 0 l 746 140 l 250 140 l 250 993 z "},"Ľ":{"ha":775,"x_min":0,"x_max":0,"o":"m 517 840 b 425 764 517 803 469 771 l 425 710 b 589 881 543 722 589 808 b 499 1000 589 949 560 1000 b 414 917 446 1000 414 964 b 517 840 414 864 456 826 z m 85 993 l 85 0 l 746 0 l 746 140 l 250 140 l 250 993 z "},"Ļ":{"ha":775,"x_min":0,"x_max":0,"o":"m 85 993 l 85 0 l 746 0 l 746 140 l 250 140 l 250 993 z m 421 -228 b 344 -307 421 -275 392 -299 l 344 -365 b 499 -196 460 -349 499 -267 b 411 -76 499 -128 469 -76 b 332 -158 368 -76 332 -111 b 421 -228 332 -215 372 -242 z "},"Ł":{"ha":772,"x_min":0,"x_max":0,"o":"m 249 140 l 249 446 l 489 622 l 489 747 l 249 571 l 249 993 l 83 993 l 83 449 l -10 381 l -10 257 l 83 325 l 83 0 l 744 0 l 744 140 z "},"M":{"ha":1154,"x_min":0,"x_max":0,"o":"m 85 0 l 246 0 l 246 753 l 249 753 l 511 0 l 643 0 l 906 753 l 908 753 l 908 0 l 1069 0 l 1069 993 l 856 993 l 579 229 l 576 229 l 299 993 l 85 993 z "},"N":{"ha":969,"x_min":0,"x_max":0,"o":"m 85 0 l 250 0 l 250 743 l 253 743 l 701 0 l 885 0 l 885 993 l 719 993 l 719 247 l 717 247 l 269 993 l 85 993 z "},"Ń":{"ha":969,"x_min":0,"x_max":0,"o":"m 486 1288 l 426 1106 l 540 1106 l 656 1288 z m 85 0 l 250 0 l 250 743 l 253 743 l 701 0 l 885 0 l 885 993 l 719 993 l 719 247 l 717 247 l 269 993 l 85 993 z "},"Ň":{"ha":969,"x_min":0,"x_max":0,"o":"m 275 1288 l 410 1106 l 564 1106 l 699 1288 l 561 1288 l 488 1178 l 485 1178 l 413 1288 z m 85 0 l 250 0 l 250 743 l 253 743 l 701 0 l 885 0 l 885 993 l 719 993 l 719 247 l 717 247 l 269 993 l 85 993 z "},"Ņ":{"ha":969,"x_min":0,"x_max":0,"o":"m 85 0 l 250 0 l 250 743 l 253 743 l 701 0 l 885 0 l 885 993 l 719 993 l 719 247 l 717 247 l 269 993 l 85 993 z m 492 -228 b 415 -307 492 -275 463 -299 l 415 -365 b 569 -196 531 -349 569 -267 b 482 -76 569 -128 540 -76 b 403 -158 439 -76 403 -111 b 492 -228 403 -215 443 -242 z "},"Ŋ":{"ha":969,"x_min":0,"x_max":0,"o":"m 85 0 l 250 0 l 250 743 l 253 743 l 713 -18 b 533 -118 704 -103 642 -126 l 533 -236 b 629 -247 560 -243 592 -247 b 885 21 789 -247 885 -161 l 885 993 l 719 993 l 719 247 l 717 247 l 269 993 l 85 993 z "},"Ñ":{"ha":969,"x_min":0,"x_max":0,"o":"m 281 1136 l 374 1136 b 410 1185 374 1156 378 1185 b 582 1133 453 1185 515 1133 b 692 1282 643 1133 692 1174 l 597 1282 b 561 1233 597 1261 593 1233 b 389 1285 519 1233 456 1285 b 281 1136 329 1285 281 1242 z m 85 0 l 250 0 l 250 743 l 253 743 l 701 0 l 885 0 l 885 993 l 719 993 l 719 247 l 717 247 l 269 993 l 85 993 z "},"O":{"ha":1069,"x_min":0,"x_max":0,"o":"m 535 -21 b 1022 497 833 -21 1022 199 b 535 1014 1022 796 833 1014 b 47 497 235 1014 47 796 b 535 -21 47 199 235 -21 z m 535 121 b 211 497 307 121 211 296 b 535 872 211 697 307 872 b 857 497 763 872 857 697 b 535 121 857 296 763 121 z "},"Ó":{"ha":1069,"x_min":0,"x_max":0,"o":"m 535 1288 l 475 1106 l 589 1106 l 704 1288 z m 535 -21 b 1022 497 833 -21 1022 199 b 535 1014 1022 796 833 1014 b 47 497 235 1014 47 796 b 535 -21 47 199 235 -21 z m 535 121 b 211 497 307 121 211 296 b 535 872 211 697 307 872 b 857 497 763 872 857 697 b 535 121 857 296 763 121 z "},"Ô":{"ha":1069,"x_min":0,"x_max":0,"o":"m 324 1107 l 461 1107 l 533 1217 l 536 1217 l 610 1107 l 747 1107 l 613 1289 l 458 1289 z m 535 -21 b 1022 497 833 -21 1022 199 b 535 1014 1022 796 833 1014 b 47 497 235 1014 47 796 b 535 -21 47 199 235 -21 z m 535 121 b 211 497 307 121 211 296 b 535 872 211 697 307 872 b 857 497 763 872 857 697 b 535 121 857 296 763 121 z "},"Ö":{"ha":1069,"x_min":0,"x_max":0,"o":"m 335 1208 b 417 1129 335 1167 364 1129 b 497 1208 468 1129 497 1167 b 417 1290 497 1253 468 1290 b 335 1208 364 1290 335 1253 z m 572 1208 b 654 1129 572 1167 601 1129 b 735 1208 706 1129 735 1167 b 654 1290 735 1253 706 1290 b 572 1208 601 1290 572 1253 z m 535 -21 b 1022 497 833 -21 1022 199 b 535 1014 1022 796 833 1014 b 47 497 235 1014 47 796 b 535 -21 47 199 235 -21 z m 535 121 b 211 497 307 121 211 296 b 535 872 211 697 307 872 b 857 497 763 872 857 697 b 535 121 857 296 763 121 z "},"Ò":{"ha":1069,"x_min":0,"x_max":0,"o":"m 533 1288 l 364 1288 l 479 1106 l 593 1106 z m 535 -21 b 1022 497 833 -21 1022 199 b 535 1014 1022 796 833 1014 b 47 497 235 1014 47 796 b 535 -21 47 199 235 -21 z m 535 121 b 211 497 307 121 211 296 b 535 872 211 697 307 872 b 857 497 763 872 857 697 b 535 121 857 296 763 121 z "},"Ő":{"ha":1069,"x_min":0,"x_max":0,"o":"m 413 1288 l 353 1106 l 467 1106 l 582 1288 z m 644 1288 l 585 1106 l 699 1106 l 814 1288 z m 535 -21 b 1022 497 833 -21 1022 199 b 535 1014 1022 796 833 1014 b 47 497 235 1014 47 796 b 535 -21 47 199 235 -21 z m 535 121 b 211 497 307 121 211 296 b 535 872 211 697 307 872 b 857 497 763 872 857 697 b 535 121 857 296 763 121 z "},"Ō":{"ha":1069,"x_min":0,"x_max":0,"o":"m 350 1256 l 350 1144 l 721 1144 l 721 1256 z m 535 -21 b 1022 497 833 -21 1022 199 b 535 1014 1022 796 833 1014 b 47 497 235 1014 47 796 b 535 -21 47 199 235 -21 z m 535 121 b 211 497 307 121 211 296 b 535 872 211 697 307 872 b 857 497 763 872 857 697 b 535 121 857 296 763 121 z "},"Ø":{"ha":1072,"x_min":0,"x_max":0,"o":"m 1026 939 l 974 989 l 872 888 b 536 1014 789 967 675 1014 b 49 497 236 1014 49 796 b 150 163 49 367 85 251 l 44 57 l 96 6 l 197 108 b 536 -21 281 26 396 -21 b 1024 497 835 -21 1024 199 b 921 833 1024 629 988 744 z m 213 497 b 536 872 213 697 308 872 b 765 781 639 872 714 838 l 263 275 b 213 497 228 339 213 415 z m 858 497 b 536 121 858 296 764 121 b 304 215 433 121 357 157 l 808 719 b 858 497 843 657 858 579 z "},"Õ":{"ha":1069,"x_min":0,"x_max":0,"o":"m 329 1136 l 422 1136 b 458 1185 422 1156 426 1185 b 631 1133 501 1185 564 1133 b 740 1282 692 1133 740 1174 l 646 1282 b 610 1233 646 1261 642 1233 b 438 1285 568 1233 504 1285 b 329 1136 378 1285 329 1242 z m 535 -21 b 1022 497 833 -21 1022 199 b 535 1014 1022 796 833 1014 b 47 497 235 1014 47 796 b 535 -21 47 199 235 -21 z m 535 121 b 211 497 307 121 211 296 b 535 872 211 697 307 872 b 857 497 763 872 857 697 b 535 121 857 296 763 121 z "},"Œ":{"ha":1500,"x_min":0,"x_max":0,"o":"m 883 140 l 883 442 l 1368 442 l 1368 583 l 883 583 l 883 853 l 1436 853 l 1436 993 l 718 993 l 718 910 b 464 1014 656 978 569 1014 b 47 497 217 1014 47 796 b 464 -21 47 199 217 -21 b 718 83 569 -21 656 17 l 718 0 l 1450 0 l 1450 140 z m 497 121 b 211 497 288 121 211 296 b 497 872 211 697 288 872 b 718 735 589 872 669 826 l 718 258 b 497 121 669 167 589 121 z "},"P":{"ha":860,"x_min":0,"x_max":0,"o":"m 85 0 l 250 0 l 250 397 l 507 397 b 835 696 697 397 835 488 b 507 993 835 904 697 993 l 85 993 z m 250 853 l 500 853 b 669 696 611 853 669 804 b 500 539 669 586 611 539 l 250 539 z "},"Þ":{"ha":856,"x_min":0,"x_max":0,"o":"m 85 0 l 250 0 l 250 240 l 507 240 b 835 538 697 240 835 329 b 507 835 835 746 697 835 l 250 835 l 250 993 l 85 993 z m 250 694 l 500 694 b 669 538 611 694 669 646 b 500 381 669 429 611 381 l 250 381 z "},"Q":{"ha":1069,"x_min":0,"x_max":0,"o":"m 1022 497 b 535 1014 1022 796 833 1014 b 47 497 235 1014 47 796 b 535 -21 47 199 235 -21 b 808 56 640 -21 733 7 l 924 -60 l 1021 38 l 910 149 b 1022 497 982 239 1022 360 z m 535 121 b 211 497 307 121 211 296 b 535 872 211 697 307 872 b 857 497 763 872 857 697 b 799 260 857 408 839 325 l 665 394 l 568 297 l 703 163 b 535 121 657 136 601 121 z "},"R":{"ha":896,"x_min":0,"x_max":0,"o":"m 85 0 l 250 0 l 250 383 l 493 383 b 685 0 732 383 639 42 l 858 0 l 858 10 b 660 458 806 26 889 415 l 660 461 b 844 708 774 489 844 569 b 508 993 844 889 713 993 l 85 993 z m 250 853 l 474 853 b 681 689 575 853 681 832 b 474 525 681 544 575 525 l 250 525 z "},"Ŕ":{"ha":896,"x_min":0,"x_max":0,"o":"m 431 1288 l 371 1106 l 485 1106 l 600 1288 z m 85 0 l 250 0 l 250 383 l 493 383 b 685 0 732 383 639 42 l 858 0 l 858 10 b 660 458 806 26 889 415 l 660 461 b 844 708 774 489 844 569 b 508 993 844 889 713 993 l 85 993 z m 250 853 l 474 853 b 681 689 575 853 681 832 b 474 525 681 544 575 525 l 250 525 z "},"Ř":{"ha":896,"x_min":0,"x_max":0,"o":"m 219 1288 l 354 1106 l 508 1106 l 643 1288 l 506 1288 l 432 1178 l 429 1178 l 357 1288 z m 85 0 l 250 0 l 250 383 l 493 383 b 685 0 732 383 639 42 l 858 0 l 858 10 b 660 458 806 26 889 415 l 660 461 b 844 708 774 489 844 569 b 508 993 844 889 713 993 l 85 993 z m 250 853 l 474 853 b 681 689 575 853 681 832 b 474 525 681 544 575 525 l 250 525 z "},"Ŗ":{"ha":896,"x_min":0,"x_max":0,"o":"m 85 0 l 250 0 l 250 383 l 493 383 b 685 0 732 383 639 42 l 858 0 l 858 10 b 660 458 806 26 889 415 l 660 461 b 844 708 774 489 844 569 b 508 993 844 889 713 993 l 85 993 z m 250 853 l 474 853 b 681 689 575 853 681 832 b 474 525 681 544 575 525 l 250 525 z m 468 -228 b 392 -307 468 -275 439 -299 l 392 -365 b 546 -196 507 -349 546 -267 b 458 -76 546 -128 517 -76 b 379 -158 415 -76 379 -111 b 468 -228 379 -215 419 -242 z "},"S":{"ha":879,"x_min":0,"x_max":0,"o":"m 461 592 b 229 754 322 626 229 646 b 418 872 229 828 300 872 b 643 696 556 872 628 811 l 808 696 b 418 1014 794 900 636 1014 b 65 739 201 1014 65 915 b 389 451 65 550 233 490 b 669 263 585 403 669 381 b 465 121 669 186 613 121 b 193 331 288 121 201 204 l 28 331 b 465 -21 38 106 222 -21 b 835 269 715 -21 835 111 b 461 592 835 492 674 538 z "},"Ś":{"ha":879,"x_min":0,"x_max":0,"o":"m 426 1288 l 367 1106 l 481 1106 l 596 1288 z m 461 592 b 229 754 322 626 229 646 b 418 872 229 828 300 872 b 643 696 556 872 628 811 l 808 696 b 418 1014 794 900 636 1014 b 65 739 201 1014 65 915 b 389 451 65 550 233 490 b 669 263 585 403 669 381 b 465 121 669 186 613 121 b 193 331 288 121 201 204 l 28 331 b 465 -21 38 106 222 -21 b 835 269 715 -21 835 111 b 461 592 835 492 674 538 z "},"Š":{"ha":879,"x_min":0,"x_max":0,"o":"m 215 1288 l 350 1106 l 504 1106 l 639 1288 l 501 1288 l 428 1178 l 425 1178 l 353 1288 z m 461 592 b 229 754 322 626 229 646 b 418 872 229 828 300 872 b 643 696 556 872 628 811 l 808 696 b 418 1014 794 900 636 1014 b 65 739 201 1014 65 915 b 389 451 65 550 233 490 b 669 263 585 403 669 381 b 465 121 669 186 613 121 b 193 331 288 121 201 204 l 28 331 b 465 -21 38 106 222 -21 b 835 269 715 -21 835 111 b 461 592 835 492 674 538 z "},"Ş":{"ha":879,"x_min":0,"x_max":0,"o":"m 510 -19 b 835 269 729 -4 835 121 b 461 592 835 492 674 538 b 229 754 322 626 229 646 b 418 872 229 828 300 872 b 643 696 556 872 628 811 l 808 696 b 418 1014 794 900 636 1014 b 65 739 201 1014 65 915 b 389 451 65 550 233 490 b 669 263 585 403 669 381 b 465 121 669 186 613 121 b 193 331 288 121 201 204 l 28 331 b 436 -21 38 115 207 -10 l 364 -110 l 383 -139 b 436 -129 397 -133 421 -129 b 501 -167 479 -129 501 -140 b 429 -214 501 -196 468 -214 b 328 -193 389 -214 358 -206 l 294 -233 b 446 -274 329 -257 386 -274 b 601 -168 526 -274 601 -235 b 461 -82 601 -96 522 -74 l 461 -79 z "},"Ș":{"ha":879,"x_min":0,"x_max":0,"o":"m 461 592 b 229 754 322 626 229 646 b 418 872 229 828 300 872 b 643 696 556 872 628 811 l 808 696 b 418 1014 794 900 636 1014 b 65 739 201 1014 65 915 b 389 451 65 550 233 490 b 669 263 585 403 669 381 b 465 121 669 186 613 121 b 193 331 288 121 201 204 l 28 331 b 465 -21 38 106 222 -21 b 835 269 715 -21 835 111 b 461 592 835 492 674 538 z m 483 -228 b 407 -307 483 -275 454 -299 l 407 -365 b 561 -196 522 -349 561 -267 b 474 -76 561 -128 532 -76 b 394 -158 431 -76 394 -111 b 483 -228 394 -215 435 -242 z "},"T":{"ha":856,"x_min":0,"x_max":0,"o":"m 346 0 l 511 0 l 511 853 l 828 853 l 828 993 l 28 993 l 28 853 l 346 853 z "},"Ŧ":{"ha":856,"x_min":0,"x_max":0,"o":"m 828 853 l 828 993 l 28 993 l 28 853 l 346 853 l 346 567 l 136 567 l 136 461 l 346 461 l 346 0 l 511 0 l 511 461 l 721 461 l 721 567 l 511 567 l 511 853 z "},"Ť":{"ha":856,"x_min":0,"x_max":0,"o":"m 217 1288 l 351 1106 l 506 1106 l 640 1288 l 503 1288 l 429 1178 l 426 1178 l 354 1288 z m 346 0 l 511 0 l 511 853 l 828 853 l 828 993 l 28 993 l 28 853 l 346 853 z "},"Ţ":{"ha":856,"x_min":0,"x_max":0,"o":"m 467 0 l 511 0 l 511 853 l 828 853 l 828 993 l 28 993 l 28 853 l 346 853 l 346 0 l 393 0 l 314 -99 l 333 -128 b 386 -118 347 -122 371 -118 b 451 -156 429 -118 451 -129 b 379 -203 451 -185 418 -203 b 278 -182 339 -203 308 -194 l 244 -222 b 396 -262 279 -246 336 -262 b 551 -157 476 -262 551 -224 b 411 -71 551 -85 472 -62 l 411 -68 z "},"Ț":{"ha":856,"x_min":0,"x_max":0,"o":"m 346 0 l 511 0 l 511 853 l 828 853 l 828 993 l 28 993 l 28 853 l 346 853 z m 433 -217 b 357 -296 433 -264 404 -287 l 357 -354 b 511 -185 472 -337 511 -256 b 424 -65 511 -117 482 -65 b 344 -147 381 -65 344 -100 b 433 -217 344 -204 385 -231 z "},"U":{"ha":926,"x_min":0,"x_max":0,"o":"m 854 339 l 854 993 l 690 993 l 690 339 b 463 121 690 189 615 121 b 236 339 311 121 236 189 l 236 993 l 71 993 l 71 339 b 463 -21 71 122 186 -21 b 854 339 739 -21 854 122 z "},"Ú":{"ha":926,"x_min":0,"x_max":0,"o":"m 463 1288 l 403 1106 l 517 1106 l 632 1288 z m 854 339 l 854 993 l 690 993 l 690 339 b 463 121 690 189 615 121 b 236 339 311 121 236 189 l 236 993 l 71 993 l 71 339 b 463 -21 71 122 186 -21 b 854 339 739 -21 854 122 z "},"Û":{"ha":926,"x_min":0,"x_max":0,"o":"m 251 1107 l 389 1107 l 461 1217 l 464 1217 l 538 1107 l 675 1107 l 540 1289 l 386 1289 z m 854 339 l 854 993 l 690 993 l 690 339 b 463 121 690 189 615 121 b 236 339 311 121 236 189 l 236 993 l 71 993 l 71 339 b 463 -21 71 122 186 -21 b 854 339 739 -21 854 122 z "},"Ü":{"ha":926,"x_min":0,"x_max":0,"o":"m 263 1208 b 344 1129 263 1167 292 1129 b 425 1208 396 1129 425 1167 b 344 1290 425 1253 396 1290 b 263 1208 292 1290 263 1253 z m 500 1208 b 582 1129 500 1167 529 1129 b 663 1208 633 1129 663 1167 b 582 1290 663 1253 633 1290 b 500 1208 529 1290 500 1253 z m 854 339 l 854 993 l 690 993 l 690 339 b 463 121 690 189 615 121 b 236 339 311 121 236 189 l 236 993 l 71 993 l 71 339 b 463 -21 71 122 186 -21 b 854 339 739 -21 854 122 z "},"Ù":{"ha":926,"x_min":0,"x_max":0,"o":"m 461 1288 l 292 1288 l 407 1106 l 521 1106 z m 854 339 l 854 993 l 690 993 l 690 339 b 463 121 690 189 615 121 b 236 339 311 121 236 189 l 236 993 l 71 993 l 71 339 b 463 -21 71 122 186 -21 b 854 339 739 -21 854 122 z "},"Ű":{"ha":926,"x_min":0,"x_max":0,"o":"m 340 1288 l 281 1106 l 394 1106 l 510 1288 z m 572 1288 l 513 1106 l 626 1106 l 742 1288 z m 854 339 l 854 993 l 690 993 l 690 339 b 463 121 690 189 615 121 b 236 339 311 121 236 189 l 236 993 l 71 993 l 71 339 b 463 -21 71 122 186 -21 b 854 339 739 -21 854 122 z "},"Ū":{"ha":926,"x_min":0,"x_max":0,"o":"m 278 1256 l 278 1144 l 649 1144 l 649 1256 z m 854 339 l 854 993 l 690 993 l 690 339 b 463 121 690 189 615 121 b 236 339 311 121 236 189 l 236 993 l 71 993 l 71 339 b 463 -21 71 122 186 -21 b 854 339 739 -21 854 122 z "},"Ų":{"ha":926,"x_min":0,"x_max":0,"o":"m 690 993 l 690 339 b 463 121 690 189 615 121 b 236 339 311 121 236 189 l 236 993 l 71 993 l 71 339 b 463 -21 71 122 186 -21 l 489 -21 b 421 -139 451 -47 421 -89 b 557 -246 421 -204 467 -246 b 654 -232 590 -246 626 -240 l 654 -135 b 590 -147 635 -142 615 -147 b 542 -108 563 -147 542 -133 b 625 0 542 -78 572 -42 b 854 339 785 47 854 171 l 854 993 z "},"Ů":{"ha":926,"x_min":0,"x_max":0,"o":"m 463 1088 b 590 1214 532 1088 590 1136 b 463 1342 590 1289 532 1342 b 335 1214 393 1342 335 1289 b 463 1088 335 1136 393 1088 z m 463 1149 b 400 1214 429 1149 400 1174 b 463 1279 400 1254 429 1279 b 525 1214 496 1279 525 1254 b 463 1149 525 1174 496 1149 z m 854 339 l 854 993 l 690 993 l 690 339 b 463 121 690 189 615 121 b 236 339 311 121 236 189 l 236 993 l 71 993 l 71 339 b 463 -21 71 122 186 -21 b 854 339 739 -21 854 122 z "},"V":{"ha":874,"x_min":0,"x_max":0,"o":"m 8 993 l 347 0 l 526 0 l 865 993 l 690 993 l 438 181 l 436 181 l 183 993 z "},"W":{"ha":1281,"x_min":0,"x_max":0,"o":"m 14 993 l 261 0 l 436 0 l 639 778 l 642 778 l 846 0 l 1019 0 l 1268 993 l 1099 993 l 929 224 l 926 224 l 725 993 l 556 993 l 356 224 l 353 224 l 183 993 z "},"Ẃ":{"ha":1281,"x_min":0,"x_max":0,"o":"m 640 1288 l 581 1106 l 694 1106 l 810 1288 z m 14 993 l 261 0 l 436 0 l 639 778 l 642 778 l 846 0 l 1019 0 l 1268 993 l 1099 993 l 929 224 l 926 224 l 725 993 l 556 993 l 356 224 l 353 224 l 183 993 z "},"Ŵ":{"ha":1281,"x_min":0,"x_max":0,"o":"m 429 1107 l 567 1107 l 639 1217 l 642 1217 l 715 1107 l 853 1107 l 718 1289 l 564 1289 z m 14 993 l 261 0 l 436 0 l 639 778 l 642 778 l 846 0 l 1019 0 l 1268 993 l 1099 993 l 929 224 l 926 224 l 725 993 l 556 993 l 356 224 l 353 224 l 183 993 z "},"Ẅ":{"ha":1281,"x_min":0,"x_max":0,"o":"m 440 1208 b 522 1129 440 1167 469 1129 b 603 1208 574 1129 603 1167 b 522 1290 603 1253 574 1290 b 440 1208 469 1290 440 1253 z m 678 1208 b 760 1129 678 1167 707 1129 b 840 1208 811 1129 840 1167 b 760 1290 840 1253 811 1290 b 678 1208 707 1290 678 1253 z m 14 993 l 261 0 l 436 0 l 639 778 l 642 778 l 846 0 l 1019 0 l 1268 993 l 1099 993 l 929 224 l 926 224 l 725 993 l 556 993 l 356 224 l 353 224 l 183 993 z "},"Ẁ":{"ha":1281,"x_min":0,"x_max":0,"o":"m 639 1288 l 469 1288 l 585 1106 l 699 1106 z m 14 993 l 261 0 l 436 0 l 639 778 l 642 778 l 846 0 l 1019 0 l 1268 993 l 1099 993 l 929 224 l 926 224 l 725 993 l 556 993 l 356 224 l 353 224 l 183 993 z "},"X":{"ha":889,"x_min":0,"x_max":0,"o":"m 350 507 l 14 0 l 207 0 l 443 388 l 444 388 l 682 0 l 875 0 l 539 510 l 850 993 l 671 993 l 444 626 l 443 626 l 218 993 l 39 993 z "},"Y":{"ha":890,"x_min":0,"x_max":0,"o":"m 10 993 l 363 394 l 363 0 l 528 0 l 528 394 l 881 993 l 704 993 l 446 532 l 443 532 l 186 993 z "},"Ý":{"ha":890,"x_min":0,"x_max":0,"o":"m 446 1288 l 386 1106 l 500 1106 l 615 1288 z m 10 993 l 363 394 l 363 0 l 528 0 l 528 394 l 881 993 l 704 993 l 446 532 l 443 532 l 186 993 z "},"Ŷ":{"ha":890,"x_min":0,"x_max":0,"o":"m 235 1107 l 372 1107 l 444 1217 l 447 1217 l 521 1107 l 658 1107 l 524 1289 l 369 1289 z m 10 993 l 363 394 l 363 0 l 528 0 l 528 394 l 881 993 l 704 993 l 446 532 l 443 532 l 186 993 z "},"Ÿ":{"ha":890,"x_min":0,"x_max":0,"o":"m 246 1208 b 328 1129 246 1167 275 1129 b 408 1208 379 1129 408 1167 b 328 1290 408 1253 379 1290 b 246 1208 275 1290 246 1253 z m 483 1208 b 565 1129 483 1167 513 1129 b 646 1208 617 1129 646 1167 b 565 1290 646 1253 617 1290 b 483 1208 513 1290 483 1253 z m 10 993 l 363 394 l 363 0 l 528 0 l 528 394 l 881 993 l 704 993 l 446 532 l 443 532 l 186 993 z "},"Ỳ":{"ha":890,"x_min":0,"x_max":0,"o":"m 444 1288 l 275 1288 l 390 1106 l 504 1106 z m 10 993 l 363 394 l 363 0 l 528 0 l 528 394 l 881 993 l 704 993 l 446 532 l 443 532 l 186 993 z "},"Z":{"ha":858,"x_min":0,"x_max":0,"o":"m 68 993 l 68 853 l 597 853 l 597 850 l 40 140 l 40 0 l 813 0 l 813 140 l 242 140 l 242 143 l 799 853 l 799 993 z "},"Ź":{"ha":858,"x_min":0,"x_max":0,"o":"m 431 1288 l 371 1106 l 485 1106 l 600 1288 z m 68 993 l 68 853 l 597 853 l 597 850 l 40 140 l 40 0 l 813 0 l 813 140 l 242 140 l 242 143 l 799 853 l 799 993 z "},"Ž":{"ha":858,"x_min":0,"x_max":0,"o":"m 219 1288 l 354 1106 l 508 1106 l 643 1288 l 506 1288 l 432 1178 l 429 1178 l 357 1288 z m 68 993 l 68 853 l 597 853 l 597 850 l 40 140 l 40 0 l 813 0 l 813 140 l 242 140 l 242 143 l 799 853 l 799 993 z "},"Ż":{"ha":858,"x_min":0,"x_max":0,"o":"m 349 1208 b 431 1129 349 1167 378 1129 b 511 1208 482 1129 511 1167 b 431 1290 511 1253 482 1290 b 349 1208 378 1290 349 1253 z m 68 993 l 68 853 l 597 853 l 597 850 l 40 140 l 40 0 l 813 0 l 813 140 l 242 140 l 242 143 l 799 853 l 799 993 z "},"a":{"ha":728,"x_min":0,"x_max":0,"o":"m 499 524 b 322 421 499 456 432 442 b 29 182 144 386 29 338 b 263 -21 29 63 118 -21 b 497 85 372 -21 453 22 l 500 85 b 628 -12 514 15 550 -12 b 713 3 656 -12 679 -10 l 713 72 b 644 143 656 67 644 93 l 644 481 b 371 729 644 669 528 729 b 63 486 157 729 69 622 l 204 486 b 371 614 211 578 254 614 b 499 524 468 614 499 575 z m 294 94 b 176 196 215 94 176 131 b 350 329 176 268 229 303 b 499 376 418 343 475 360 l 499 269 b 294 94 499 154 415 94 z "},"á":{"ha":728,"x_min":0,"x_max":0,"o":"m 371 1004 l 311 822 l 425 822 l 540 1004 z m 499 524 b 322 421 499 456 432 442 b 29 182 144 386 29 338 b 263 -21 29 63 118 -21 b 497 85 372 -21 453 22 l 500 85 b 628 -12 514 15 550 -12 b 713 3 656 -12 679 -10 l 713 72 b 644 143 656 67 644 93 l 644 481 b 371 729 644 669 528 729 b 63 486 157 729 69 622 l 204 486 b 371 614 211 578 254 614 b 499 524 468 614 499 575 z m 294 94 b 176 196 215 94 176 131 b 350 329 176 268 229 303 b 499 376 418 343 475 360 l 499 269 b 294 94 499 154 415 94 z "},"ă":{"ha":728,"x_min":0,"x_max":0,"o":"m 371 817 b 561 1004 481 817 556 885 l 464 1004 b 371 917 460 946 431 917 b 276 1004 311 917 281 946 l 179 1004 b 371 817 183 881 263 817 z m 499 524 b 322 421 499 456 432 442 b 29 182 144 386 29 338 b 263 -21 29 63 118 -21 b 497 85 372 -21 453 22 l 500 85 b 628 -12 514 15 550 -12 b 713 3 656 -12 679 -10 l 713 72 b 644 143 656 67 644 93 l 644 481 b 371 729 644 669 528 729 b 63 486 157 729 69 622 l 204 486 b 371 614 211 578 254 614 b 499 524 468 614 499 575 z m 294 94 b 176 196 215 94 176 131 b 350 329 176 268 229 303 b 499 376 418 343 475 360 l 499 269 b 294 94 499 154 415 94 z "},"â":{"ha":728,"x_min":0,"x_max":0,"o":"m 160 824 l 297 824 l 369 933 l 372 933 l 446 824 l 583 824 l 449 1006 l 294 1006 z m 499 524 b 322 421 499 456 432 442 b 29 182 144 386 29 338 b 263 -21 29 63 118 -21 b 497 85 372 -21 453 22 l 500 85 b 628 -12 514 15 550 -12 b 713 3 656 -12 679 -10 l 713 72 b 644 143 656 67 644 93 l 644 481 b 371 729 644 669 528 729 b 63 486 157 729 69 622 l 204 486 b 371 614 211 578 254 614 b 499 524 468 614 499 575 z m 294 94 b 176 196 215 94 176 131 b 350 329 176 268 229 303 b 499 376 418 343 475 360 l 499 269 b 294 94 499 154 415 94 z "},"ä":{"ha":728,"x_min":0,"x_max":0,"o":"m 171 925 b 253 846 171 883 200 846 b 333 925 304 846 333 883 b 253 1007 333 969 304 1007 b 171 925 200 1007 171 969 z m 408 925 b 490 846 408 883 438 846 b 571 925 542 846 571 883 b 490 1007 571 969 542 1007 b 408 925 438 1007 408 969 z m 499 524 b 322 421 499 456 432 442 b 29 182 144 386 29 338 b 263 -21 29 63 118 -21 b 497 85 372 -21 453 22 l 500 85 b 628 -12 514 15 550 -12 b 713 3 656 -12 679 -10 l 713 72 b 644 143 656 67 644 93 l 644 481 b 371 729 644 669 528 729 b 63 486 157 729 69 622 l 204 486 b 371 614 211 578 254 614 b 499 524 468 614 499 575 z m 294 94 b 176 196 215 94 176 131 b 350 329 176 268 229 303 b 499 376 418 343 475 360 l 499 269 b 294 94 499 154 415 94 z "},"à":{"ha":728,"x_min":0,"x_max":0,"o":"m 369 1004 l 200 1004 l 315 822 l 429 822 z m 499 524 b 322 421 499 456 432 442 b 29 182 144 386 29 338 b 263 -21 29 63 118 -21 b 497 85 372 -21 453 22 l 500 85 b 628 -12 514 15 550 -12 b 713 3 656 -12 679 -10 l 713 72 b 644 143 656 67 644 93 l 644 481 b 371 729 644 669 528 729 b 63 486 157 729 69 622 l 204 486 b 371 614 211 578 254 614 b 499 524 468 614 499 575 z m 294 94 b 176 196 215 94 176 131 b 350 329 176 268 229 303 b 499 376 418 343 475 360 l 499 269 b 294 94 499 154 415 94 z "},"ā":{"ha":728,"x_min":0,"x_max":0,"o":"m 186 972 l 186 861 l 557 861 l 557 972 z m 499 524 b 322 421 499 456 432 442 b 29 182 144 386 29 338 b 263 -21 29 63 118 -21 b 497 85 372 -21 453 22 l 500 85 b 628 -12 514 15 550 -12 b 713 3 656 -12 679 -10 l 713 72 b 644 143 656 67 644 93 l 644 481 b 371 729 644 669 528 729 b 63 486 157 729 69 622 l 204 486 b 371 614 211 578 254 614 b 499 524 468 614 499 575 z m 294 94 b 176 196 215 94 176 131 b 350 329 176 268 229 303 b 499 376 418 343 475 360 l 499 269 b 294 94 499 154 415 94 z "},"ą":{"ha":728,"x_min":0,"x_max":0,"o":"m 669 -147 b 621 -108 642 -147 621 -133 b 704 0 621 -78 651 -42 b 713 3 707 0 710 1 l 713 72 b 644 143 656 67 644 93 l 644 481 b 371 729 644 669 528 729 b 63 486 157 729 69 622 l 204 486 b 371 614 211 578 254 614 b 499 524 468 614 499 575 b 322 421 499 456 432 442 b 29 182 144 386 29 338 b 263 -21 29 63 118 -21 b 497 85 372 -21 453 22 l 500 85 b 585 -8 511 29 536 0 b 500 -139 542 -33 500 -82 b 636 -246 500 -204 546 -246 b 733 -232 669 -246 706 -240 l 733 -135 b 669 -147 714 -142 694 -147 z m 499 269 b 294 94 499 154 415 94 b 176 196 215 94 176 131 b 350 329 176 268 229 303 b 499 376 418 343 475 360 z "},"å":{"ha":728,"x_min":0,"x_max":0,"o":"m 371 804 b 499 931 440 804 499 853 b 371 1058 499 1006 440 1058 b 243 931 301 1058 243 1006 b 371 804 243 853 301 804 z m 371 865 b 308 931 338 865 308 890 b 371 996 308 971 338 996 b 433 931 404 996 433 971 b 371 865 433 890 404 865 z m 499 524 b 322 421 499 456 432 442 b 29 182 144 386 29 338 b 263 -21 29 63 118 -21 b 497 85 372 -21 453 22 l 500 85 b 628 -12 514 15 550 -12 b 713 3 656 -12 679 -10 l 713 72 b 644 143 656 67 644 93 l 644 481 b 371 729 644 669 528 729 b 63 486 157 729 69 622 l 204 486 b 371 614 211 578 254 614 b 499 524 468 614 499 575 z m 294 94 b 176 196 215 94 176 131 b 350 329 176 268 229 303 b 499 376 418 343 475 360 l 499 269 b 294 94 499 154 415 94 z "},"ã":{"ha":728,"x_min":0,"x_max":0,"o":"m 165 853 l 258 853 b 294 901 258 872 263 901 b 467 850 338 901 400 850 b 576 999 528 850 576 890 l 482 999 b 446 950 482 978 478 950 b 274 1001 404 950 340 1001 b 165 853 214 1001 165 958 z m 499 524 b 322 421 499 456 432 442 b 29 182 144 386 29 338 b 263 -21 29 63 118 -21 b 497 85 372 -21 453 22 l 500 85 b 628 -12 514 15 550 -12 b 713 3 656 -12 679 -10 l 713 72 b 644 143 656 67 644 93 l 644 481 b 371 729 644 669 528 729 b 63 486 157 729 69 622 l 204 486 b 371 614 211 578 254 614 b 499 524 468 614 499 575 z m 294 94 b 176 196 215 94 176 131 b 350 329 176 268 229 303 b 499 376 418 343 475 360 l 499 269 b 294 94 499 154 415 94 z "},"æ":{"ha":1219,"x_min":0,"x_max":0,"o":"m 850 99 b 644 317 721 99 644 197 l 1189 317 b 847 729 1189 569 1076 729 b 603 638 746 729 663 697 b 371 729 556 704 471 729 b 63 486 157 729 69 622 l 204 486 b 371 614 211 578 254 614 b 499 524 468 614 499 575 b 322 421 499 456 432 442 b 29 182 144 386 29 338 b 272 -21 29 63 118 -21 b 574 107 371 -21 496 7 b 854 -21 635 26 732 -21 b 1178 217 1036 -21 1142 82 l 1032 217 b 850 99 1019 174 971 99 z m 847 614 b 1043 425 965 614 1043 535 l 644 425 b 847 614 644 535 729 614 z m 499 269 b 294 94 499 178 435 94 b 176 196 215 94 176 131 b 350 329 176 268 229 303 b 499 376 418 343 475 360 z "},"b":{"ha":783,"x_min":0,"x_max":0,"o":"m 435 729 b 218 624 325 729 256 678 l 215 624 l 215 993 l 69 993 l 69 0 l 215 0 l 215 82 l 218 82 b 435 -21 256 33 325 -21 b 751 354 617 -21 751 121 b 435 729 751 588 617 729 z m 410 99 b 217 354 290 99 217 197 b 410 610 217 513 290 610 b 606 354 538 610 606 493 b 410 99 606 215 538 99 z "},"c":{"ha":731,"x_min":0,"x_max":0,"o":"m 558 450 l 704 450 b 381 729 686 611 565 729 b 32 354 169 729 32 576 b 382 -21 32 132 169 -21 b 704 264 567 -21 693 100 l 558 264 b 382 99 553 185 507 99 b 178 354 238 99 178 221 b 382 610 178 488 239 610 b 558 450 507 610 553 522 z "},"ć":{"ha":731,"x_min":0,"x_max":0,"o":"m 369 1004 l 310 822 l 424 822 l 539 1004 z m 558 450 l 704 450 b 381 729 686 611 565 729 b 32 354 169 729 32 576 b 382 -21 32 132 169 -21 b 704 264 567 -21 693 100 l 558 264 b 382 99 553 185 507 99 b 178 354 238 99 178 221 b 382 610 178 488 239 610 b 558 450 507 610 553 522 z "},"č":{"ha":731,"x_min":0,"x_max":0,"o":"m 158 1004 l 293 822 l 447 822 l 582 1004 l 444 1004 l 371 894 l 368 894 l 296 1004 z m 558 450 l 704 450 b 381 729 686 611 565 729 b 32 354 169 729 32 576 b 382 -21 32 132 169 -21 b 704 264 567 -21 693 100 l 558 264 b 382 99 553 185 507 99 b 178 354 238 99 178 221 b 382 610 178 488 239 610 b 558 450 507 610 553 522 z "},"ç":{"ha":731,"x_min":0,"x_max":0,"o":"m 382 99 b 178 354 238 99 178 221 b 382 610 178 488 239 610 b 558 450 507 610 553 522 l 704 450 b 381 729 686 611 565 729 b 32 354 169 729 32 576 b 332 -18 32 150 149 4 l 258 -110 l 278 -139 b 331 -129 292 -133 315 -129 b 396 -167 374 -129 396 -140 b 324 -214 396 -196 363 -214 b 222 -193 283 -214 253 -206 l 189 -233 b 340 -274 224 -257 281 -274 b 496 -168 421 -274 496 -235 b 356 -82 496 -96 417 -74 l 356 -79 l 404 -21 b 704 264 576 -11 693 107 l 558 264 b 382 99 553 185 507 99 z "},"ċ":{"ha":731,"x_min":0,"x_max":0,"o":"m 288 925 b 369 846 288 883 317 846 b 450 925 421 846 450 883 b 369 1007 450 969 421 1007 b 288 925 317 1007 288 969 z m 558 450 l 704 450 b 381 729 686 611 565 729 b 32 354 169 729 32 576 b 382 -21 32 132 169 -21 b 704 264 567 -21 693 100 l 558 264 b 382 99 553 185 507 99 b 178 354 238 99 178 221 b 382 610 178 488 239 610 b 558 450 507 610 553 522 z "},"d":{"ha":783,"x_min":0,"x_max":0,"o":"m 568 993 l 568 624 l 565 624 b 349 729 528 678 458 729 b 32 354 167 729 32 588 b 349 -21 32 121 167 -21 b 565 82 458 -21 528 33 l 568 82 l 568 0 l 714 0 l 714 993 z m 374 99 b 178 354 246 99 178 215 b 374 610 178 493 246 610 b 567 354 493 610 567 513 b 374 99 567 197 493 99 z "},"ð":{"ha":778,"x_min":0,"x_max":0,"o":"m 571 865 l 699 900 l 679 972 l 508 926 b 414 993 472 957 440 979 l 222 993 b 371 890 271 965 322 931 l 211 847 l 229 775 l 438 831 b 571 629 497 771 546 704 l 571 626 b 365 733 526 689 451 733 b 32 357 185 733 32 594 b 382 -22 32 129 157 -22 b 744 419 647 -22 744 203 b 571 865 744 619 660 767 z m 382 101 b 178 357 249 101 178 214 b 382 611 178 500 249 611 b 593 357 514 611 593 500 b 382 101 593 214 514 101 z "},"ď":{"ha":815,"x_min":0,"x_max":0,"o":"m 872 1000 b 786 917 819 1000 786 964 b 889 840 786 864 828 826 b 797 764 889 803 843 771 l 797 710 b 963 881 917 722 963 808 b 872 1000 963 949 932 1000 z m 568 624 l 565 624 b 349 729 528 678 458 729 b 32 354 167 729 32 588 b 349 -21 32 121 167 -21 b 565 82 458 -21 528 33 l 568 82 l 568 0 l 714 0 l 714 993 l 568 993 z m 374 99 b 178 354 246 99 178 215 b 374 610 178 493 246 610 b 567 354 493 610 567 513 b 374 99 567 197 493 99 z "},"đ":{"ha":789,"x_min":0,"x_max":0,"o":"m 801 914 l 714 914 l 714 993 l 568 993 l 568 914 l 365 914 l 365 808 l 568 808 l 568 624 l 565 624 b 349 729 528 678 458 729 b 32 354 167 729 32 588 b 349 -21 32 121 167 -21 b 565 82 458 -21 528 33 l 568 82 l 568 0 l 714 0 l 714 808 l 801 808 z m 374 99 b 178 354 246 99 178 215 b 374 610 178 493 246 610 b 567 354 493 610 567 513 b 374 99 567 197 493 99 z "},"e":{"ha":753,"x_min":0,"x_max":0,"o":"m 383 99 b 178 317 254 99 178 197 l 722 317 b 381 729 722 569 610 729 b 32 354 167 729 32 585 b 388 -21 32 132 167 -21 b 711 217 569 -21 675 82 l 565 217 b 383 99 553 174 504 99 z m 381 614 b 576 425 499 614 576 535 l 178 425 b 381 614 178 535 263 614 z "},"é":{"ha":753,"x_min":0,"x_max":0,"o":"m 547 1004 l 378 1004 l 318 822 l 432 822 z m 383 99 b 178 317 254 99 178 197 l 722 317 b 381 729 722 569 610 729 b 32 354 167 729 32 585 b 388 -21 32 132 167 -21 b 711 217 569 -21 675 82 l 565 217 b 383 99 553 174 504 99 z m 381 614 b 576 425 499 614 576 535 l 178 425 b 381 614 178 535 263 614 z "},"ě":{"ha":753,"x_min":0,"x_max":0,"o":"m 456 822 l 590 1004 l 453 1004 l 379 894 l 376 894 l 304 1004 l 167 1004 l 301 822 z m 383 99 b 178 317 254 99 178 197 l 722 317 b 381 729 722 569 610 729 b 32 354 167 729 32 585 b 388 -21 32 132 167 -21 b 711 217 569 -21 675 82 l 565 217 b 383 99 553 174 504 99 z m 381 614 b 576 425 499 614 576 535 l 178 425 b 381 614 178 535 263 614 z "},"ê":{"ha":753,"x_min":0,"x_max":0,"o":"m 376 933 l 379 933 l 453 824 l 590 824 l 456 1006 l 301 1006 l 167 824 l 304 824 z m 383 99 b 178 317 254 99 178 197 l 722 317 b 381 729 722 569 610 729 b 32 354 167 729 32 585 b 388 -21 32 132 167 -21 b 711 217 569 -21 675 82 l 565 217 b 383 99 553 174 504 99 z m 381 614 b 576 425 499 614 576 535 l 178 425 b 381 614 178 535 263 614 z "},"ë":{"ha":753,"x_min":0,"x_max":0,"o":"m 260 846 b 340 925 311 846 340 883 b 260 1007 340 969 311 1007 b 178 925 207 1007 178 969 b 260 846 178 883 207 846 z m 497 846 b 578 925 549 846 578 883 b 497 1007 578 969 549 1007 b 415 925 444 1007 415 969 b 497 846 415 883 444 846 z m 383 99 b 178 317 254 99 178 197 l 722 317 b 381 729 722 569 610 729 b 32 354 167 729 32 585 b 388 -21 32 132 167 -21 b 711 217 569 -21 675 82 l 565 217 b 383 99 553 174 504 99 z m 381 614 b 576 425 499 614 576 535 l 178 425 b 381 614 178 535 263 614 z "},"ė":{"ha":753,"x_min":0,"x_max":0,"o":"m 378 846 b 458 925 429 846 458 883 b 378 1007 458 969 429 1007 b 296 925 325 1007 296 969 b 378 846 296 883 325 846 z m 383 99 b 178 317 254 99 178 197 l 722 317 b 381 729 722 569 610 729 b 32 354 167 729 32 585 b 388 -21 32 132 167 -21 b 711 217 569 -21 675 82 l 565 217 b 383 99 553 174 504 99 z m 381 614 b 576 425 499 614 576 535 l 178 425 b 381 614 178 535 263 614 z "},"è":{"ha":753,"x_min":0,"x_max":0,"o":"m 436 822 l 376 1004 l 207 1004 l 322 822 z m 383 99 b 178 317 254 99 178 197 l 722 317 b 381 729 722 569 610 729 b 32 354 167 729 32 585 b 388 -21 32 132 167 -21 b 711 217 569 -21 675 82 l 565 217 b 383 99 553 174 504 99 z m 381 614 b 576 425 499 614 576 535 l 178 425 b 381 614 178 535 263 614 z "},"ē":{"ha":753,"x_min":0,"x_max":0,"o":"m 564 972 l 193 972 l 193 861 l 564 861 z m 383 99 b 178 317 254 99 178 197 l 722 317 b 381 729 722 569 610 729 b 32 354 167 729 32 585 b 388 -21 32 132 167 -21 b 711 217 569 -21 675 82 l 565 217 b 383 99 553 174 504 99 z m 381 614 b 576 425 499 614 576 535 l 178 425 b 381 614 178 535 263 614 z "},"ę":{"ha":753,"x_min":0,"x_max":0,"o":"m 383 99 b 178 317 254 99 178 197 l 722 317 b 381 729 722 569 610 729 b 32 354 167 729 32 585 b 375 -21 32 136 161 -15 b 308 -139 339 -47 308 -89 b 444 -246 308 -204 354 -246 b 542 -232 478 -246 514 -240 l 542 -135 b 478 -147 522 -142 503 -147 b 429 -108 450 -147 429 -133 b 508 -3 429 -79 458 -43 b 711 217 618 32 683 115 l 565 217 b 383 99 553 174 504 99 z m 381 614 b 576 425 499 614 576 535 l 178 425 b 381 614 178 535 263 614 z "},"f":{"ha":432,"x_min":0,"x_max":0,"o":"m 404 874 l 404 993 b 307 1003 375 999 343 1003 b 126 800 190 1003 126 950 l 126 710 l 25 710 l 25 590 l 126 590 l 126 0 l 274 0 l 274 590 l 404 590 l 404 710 l 274 710 l 274 788 b 404 874 274 868 310 878 z "},"g":{"ha":776,"x_min":0,"x_max":0,"o":"m 561 710 l 561 626 l 558 626 b 343 729 521 676 456 729 b 32 382 165 729 32 607 b 343 35 32 158 165 35 b 558 140 456 35 521 88 l 561 140 l 561 54 b 376 -129 561 -74 499 -129 b 197 -19 261 -129 211 -82 l 50 -19 b 382 -246 65 -139 178 -246 b 707 49 583 -246 707 -156 l 707 710 z m 371 154 b 178 382 243 154 178 251 b 371 610 178 514 243 610 b 560 382 489 610 560 532 b 371 154 560 232 489 154 z "},"ğ":{"ha":776,"x_min":0,"x_max":0,"o":"m 365 817 b 556 1004 475 817 550 885 l 458 1004 b 365 917 454 946 425 917 b 271 1004 306 917 275 946 l 174 1004 b 365 817 178 881 257 817 z m 561 710 l 561 626 l 558 626 b 343 729 521 676 456 729 b 32 382 165 729 32 607 b 343 35 32 158 165 35 b 558 140 456 35 521 88 l 561 140 l 561 54 b 376 -129 561 -74 499 -129 b 197 -19 261 -129 211 -82 l 50 -19 b 382 -246 65 -139 178 -246 b 707 49 583 -246 707 -156 l 707 710 z m 371 154 b 178 382 243 154 178 251 b 371 610 178 514 243 610 b 560 382 489 610 560 532 b 371 154 560 232 489 154 z "},"ģ":{"ha":776,"x_min":0,"x_max":0,"o":"m 368 792 b 444 872 411 792 444 825 b 354 943 444 931 403 957 b 431 1032 354 990 385 1024 l 431 1090 b 278 913 317 1074 278 982 b 368 792 278 843 308 792 z m 561 710 l 561 626 l 558 626 b 343 729 521 676 456 729 b 32 382 165 729 32 607 b 343 35 32 158 165 35 b 558 140 456 35 521 88 l 561 140 l 561 54 b 376 -129 561 -74 499 -129 b 197 -19 261 -129 211 -82 l 50 -19 b 382 -246 65 -139 178 -246 b 707 49 583 -246 707 -156 l 707 710 z m 371 154 b 178 382 243 154 178 251 b 371 610 178 514 243 610 b 560 382 489 610 560 532 b 371 154 560 232 489 154 z "},"ġ":{"ha":776,"x_min":0,"x_max":0,"o":"m 365 846 b 446 925 417 846 446 883 b 365 1007 446 969 417 1007 b 283 925 313 1007 283 969 b 365 846 283 883 313 846 z m 561 710 l 561 626 l 558 626 b 343 729 521 676 456 729 b 32 382 165 729 32 607 b 343 35 32 158 165 35 b 558 140 456 35 521 88 l 561 140 l 561 54 b 376 -129 561 -74 499 -129 b 197 -19 261 -129 211 -82 l 50 -19 b 382 -246 65 -139 178 -246 b 707 49 583 -246 707 -156 l 707 710 z m 371 154 b 178 382 243 154 178 251 b 371 610 178 514 243 610 b 560 382 489 610 560 532 b 371 154 560 232 489 154 z "},"h":{"ha":751,"x_min":0,"x_max":0,"o":"m 449 729 b 218 618 329 729 256 674 l 215 618 l 215 993 l 69 993 l 69 0 l 215 0 l 215 432 b 399 606 215 538 292 606 b 540 449 500 606 540 544 l 540 0 l 688 0 l 688 490 b 449 729 688 653 583 729 z "},"ħ":{"ha":758,"x_min":0,"x_max":0,"o":"m 454 729 b 224 618 335 729 261 674 l 221 618 l 221 808 l 426 808 l 426 914 l 221 914 l 221 993 l 75 993 l 75 914 l -12 914 l -12 808 l 75 808 l 75 0 l 221 0 l 221 432 b 404 606 221 538 297 606 b 546 449 506 606 546 544 l 546 0 l 693 0 l 693 490 b 454 729 693 653 589 729 z "},"i":{"ha":304,"x_min":0,"x_max":0,"o":"m 151 829 b 235 907 194 829 235 857 b 151 983 235 957 194 983 b 69 907 111 983 69 957 b 151 829 69 857 111 829 z m 79 710 l 79 0 l 225 0 l 225 710 z "},"ı":{"ha":231,"x_min":0,"x_max":0,"o":"m 42 710 l 42 0 l 189 0 l 189 710 z "},"í":{"ha":231,"x_min":0,"x_max":0,"o":"m 115 1004 l 56 822 l 169 822 l 285 1004 z m 42 710 l 42 0 l 189 0 l 189 710 z "},"î":{"ha":231,"x_min":0,"x_max":0,"o":"m -96 824 l 42 824 l 114 933 l 117 933 l 190 824 l 328 824 l 193 1006 l 39 1006 z m 42 710 l 42 0 l 189 0 l 189 710 z "},"ï":{"ha":231,"x_min":0,"x_max":0,"o":"m -85 925 b -3 846 -85 883 -56 846 b 78 925 49 846 78 883 b -3 1007 78 969 49 1007 b -85 925 -56 1007 -85 969 z m 153 925 b 235 846 153 883 182 846 b 315 925 286 846 315 883 b 235 1007 315 969 286 1007 b 153 925 182 1007 153 969 z m 42 710 l 42 0 l 189 0 l 189 710 z "},"ì":{"ha":231,"x_min":0,"x_max":0,"o":"m 114 1004 l -56 1004 l 60 822 l 174 822 z m 42 710 l 42 0 l 189 0 l 189 710 z "},"ī":{"ha":231,"x_min":0,"x_max":0,"o":"m -69 972 l -69 861 l 301 861 l 301 972 z m 42 710 l 42 0 l 189 0 l 189 710 z "},"į":{"ha":231,"x_min":0,"x_max":0,"o":"m 115 846 b 196 925 167 846 196 883 b 115 1007 196 969 167 1007 b 33 925 63 1007 33 969 b 115 846 33 883 63 846 z m 154 -147 b 106 -108 126 -147 106 -133 b 189 0 106 -78 136 -42 l 189 710 l 42 710 l 42 0 l 88 0 b -15 -139 39 -21 -15 -74 b 121 -246 -15 -204 31 -246 b 218 -232 154 -246 190 -240 l 218 -135 b 154 -147 199 -142 179 -147 z "},"j":{"ha":297,"x_min":0,"x_max":0,"o":"m 144 829 b 228 907 186 829 228 857 b 144 983 228 957 186 983 b 63 907 104 983 63 957 b 144 829 63 857 104 829 z m 72 710 l 72 -35 b -47 -115 72 -115 47 -121 l -47 -226 b 67 -242 -7 -236 24 -242 b 218 -33 183 -242 218 -164 l 218 710 z "},"k":{"ha":711,"x_min":0,"x_max":0,"o":"m 69 993 l 69 0 l 215 0 l 215 257 l 314 350 l 538 0 l 713 0 l 414 446 l 683 710 l 504 710 l 215 425 l 215 993 z "},"ķ":{"ha":711,"x_min":0,"x_max":0,"o":"m 69 993 l 69 0 l 215 0 l 215 257 l 314 350 l 538 0 l 713 0 l 414 446 l 683 710 l 504 710 l 215 425 l 215 993 z m 388 -228 b 311 -307 388 -275 358 -299 l 311 -365 b 465 -196 426 -349 465 -267 b 378 -76 465 -128 436 -76 b 299 -158 335 -76 299 -111 b 388 -228 299 -215 339 -242 z "},"l":{"ha":292,"x_min":0,"x_max":0,"o":"m 72 993 l 72 0 l 219 0 l 219 993 z "},"ĺ":{"ha":283,"x_min":0,"x_max":0,"o":"m 154 1251 l 94 1069 l 208 1069 l 324 1251 z m 72 993 l 72 0 l 219 0 l 219 993 z "},"ľ":{"ha":324,"x_min":0,"x_max":0,"o":"m 394 840 b 303 764 394 803 347 771 l 303 710 b 467 881 421 722 467 808 b 376 1000 467 949 438 1000 b 292 917 324 1000 292 964 b 394 840 292 864 333 826 z m 72 993 l 72 0 l 219 0 l 219 993 z "},"ļ":{"ha":292,"x_min":0,"x_max":0,"o":"m 72 993 l 72 0 l 219 0 l 219 993 z m 151 -228 b 75 -307 151 -275 122 -299 l 75 -365 b 229 -196 190 -349 229 -267 b 142 -76 229 -128 200 -76 b 63 -158 99 -76 63 -111 b 151 -228 63 -215 103 -242 z "},"ł":{"ha":338,"x_min":0,"x_max":0,"o":"m 344 715 l 249 646 l 249 993 l 101 993 l 101 539 l 6 469 l 6 344 l 101 414 l 101 0 l 249 0 l 249 521 l 344 590 z "},"m":{"ha":1135,"x_min":0,"x_max":0,"o":"m 853 729 b 621 607 743 729 674 675 l 618 607 b 429 729 589 683 529 729 b 218 618 322 729 256 674 l 215 618 l 215 710 l 69 710 l 69 0 l 215 0 l 215 432 b 375 606 215 538 278 606 b 496 449 476 606 496 544 l 496 0 l 643 0 l 643 432 b 803 606 643 538 704 606 b 922 449 903 606 922 544 l 922 0 l 1069 0 l 1069 490 b 853 729 1069 643 996 729 z "},"n":{"ha":751,"x_min":0,"x_max":0,"o":"m 451 729 b 218 618 329 729 256 674 l 215 618 l 215 710 l 69 710 l 69 0 l 215 0 l 215 432 b 400 606 215 538 288 606 b 540 449 500 606 540 544 l 540 0 l 688 0 l 688 490 b 451 729 688 653 583 729 z "},"ń":{"ha":751,"x_min":0,"x_max":0,"o":"m 561 1004 l 392 1004 l 332 822 l 446 822 z m 451 729 b 218 618 329 729 256 674 l 215 618 l 215 710 l 69 710 l 69 0 l 215 0 l 215 432 b 400 606 215 538 288 606 b 540 449 500 606 540 544 l 540 0 l 688 0 l 688 490 b 451 729 688 653 583 729 z "},"ň":{"ha":751,"x_min":0,"x_max":0,"o":"m 469 822 l 604 1004 l 467 1004 l 393 894 l 390 894 l 318 1004 l 181 1004 l 315 822 z m 451 729 b 218 618 329 729 256 674 l 215 618 l 215 710 l 69 710 l 69 0 l 215 0 l 215 432 b 400 606 215 538 288 606 b 540 449 500 606 540 544 l 540 0 l 688 0 l 688 490 b 451 729 688 653 583 729 z "},"ņ":{"ha":751,"x_min":0,"x_max":0,"o":"m 451 729 b 218 618 329 729 256 674 l 215 618 l 215 710 l 69 710 l 69 0 l 215 0 l 215 432 b 400 606 215 538 288 606 b 540 449 500 606 540 544 l 540 0 l 688 0 l 688 490 b 451 729 688 653 583 729 z m 375 -76 b 296 -158 332 -76 296 -111 b 385 -228 296 -215 336 -242 b 308 -307 385 -275 356 -299 l 308 -365 b 463 -196 424 -349 463 -267 b 375 -76 463 -128 433 -76 z "},"ŋ":{"ha":751,"x_min":0,"x_max":0,"o":"m 451 729 b 218 618 329 729 256 674 l 215 618 l 215 710 l 69 710 l 69 0 l 215 0 l 215 432 b 400 606 215 538 288 606 b 540 449 500 606 540 544 l 540 -25 b 407 -111 540 -106 501 -115 l 407 -231 b 507 -240 436 -236 468 -240 b 688 -39 624 -240 688 -187 l 688 490 b 451 729 688 653 583 729 z "},"ñ":{"ha":751,"x_min":0,"x_max":0,"o":"m 315 901 b 488 850 358 901 421 850 b 597 999 549 850 597 890 l 503 999 b 467 950 503 978 499 950 b 294 1001 425 950 361 1001 b 186 853 235 1001 186 958 l 279 853 b 315 901 279 872 283 901 z m 451 729 b 218 618 329 729 256 674 l 215 618 l 215 710 l 69 710 l 69 0 l 215 0 l 215 432 b 400 606 215 538 288 606 b 540 449 500 606 540 544 l 540 0 l 688 0 l 688 490 b 451 729 688 653 583 729 z "},"o":{"ha":778,"x_min":0,"x_max":0,"o":"m 389 -21 b 32 354 167 -21 32 133 b 389 729 32 575 167 729 b 746 354 611 729 746 575 b 389 -21 746 133 611 -21 z m 389 99 b 600 354 528 99 600 208 b 389 610 600 501 528 610 b 178 354 250 610 178 501 b 389 99 178 208 250 99 z "},"ó":{"ha":778,"x_min":0,"x_max":0,"o":"m 389 1004 l 329 822 l 443 822 l 558 1004 z m 389 -21 b 32 354 167 -21 32 133 b 389 729 32 575 167 729 b 746 354 611 729 746 575 b 389 -21 746 133 611 -21 z m 389 99 b 600 354 528 99 600 208 b 389 610 600 501 528 610 b 178 354 250 610 178 501 b 389 99 178 208 250 99 z "},"ô":{"ha":778,"x_min":0,"x_max":0,"o":"m 178 824 l 315 824 l 388 933 l 390 933 l 464 824 l 601 824 l 467 1006 l 313 1006 z m 389 -21 b 32 354 167 -21 32 133 b 389 729 32 575 167 729 b 746 354 611 729 746 575 b 389 -21 746 133 611 -21 z m 389 99 b 600 354 528 99 600 208 b 389 610 600 501 528 610 b 178 354 250 610 178 501 b 389 99 178 208 250 99 z "},"ö":{"ha":778,"x_min":0,"x_max":0,"o":"m 189 925 b 271 846 189 883 218 846 b 351 925 322 846 351 883 b 271 1007 351 969 322 1007 b 189 925 218 1007 189 969 z m 426 925 b 508 846 426 883 456 846 b 589 925 560 846 589 883 b 508 1007 589 969 560 1007 b 426 925 456 1007 426 969 z m 389 -21 b 32 354 167 -21 32 133 b 389 729 32 575 167 729 b 746 354 611 729 746 575 b 389 -21 746 133 611 -21 z m 389 99 b 600 354 528 99 600 208 b 389 610 600 501 528 610 b 178 354 250 610 178 501 b 389 99 178 208 250 99 z "},"ò":{"ha":778,"x_min":0,"x_max":0,"o":"m 388 1004 l 218 1004 l 333 822 l 447 822 z m 389 -21 b 32 354 167 -21 32 133 b 389 729 32 575 167 729 b 746 354 611 729 746 575 b 389 -21 746 133 611 -21 z m 389 99 b 600 354 528 99 600 208 b 389 610 600 501 528 610 b 178 354 250 610 178 501 b 389 99 178 208 250 99 z "},"ő":{"ha":778,"x_min":0,"x_max":0,"o":"m 267 1004 l 207 822 l 321 822 l 436 1004 z m 499 1004 l 439 822 l 553 822 l 668 1004 z m 389 -21 b 32 354 167 -21 32 133 b 389 729 32 575 167 729 b 746 354 611 729 746 575 b 389 -21 746 133 611 -21 z m 389 99 b 600 354 528 99 600 208 b 389 610 600 501 528 610 b 178 354 250 610 178 501 b 389 99 178 208 250 99 z "},"ō":{"ha":778,"x_min":0,"x_max":0,"o":"m 204 972 l 204 861 l 575 861 l 575 972 z m 389 -21 b 32 354 167 -21 32 133 b 389 729 32 575 167 729 b 746 354 611 729 746 575 b 389 -21 746 133 611 -21 z m 389 99 b 600 354 528 99 600 208 b 389 610 600 501 528 610 b 178 354 250 610 178 501 b 389 99 178 208 250 99 z "},"ø":{"ha":803,"x_min":0,"x_max":0,"o":"m 771 672 l 719 724 l 636 639 b 389 729 575 696 492 729 b 32 354 167 729 32 575 b 107 108 32 257 58 172 l 35 36 l 85 -15 l 156 57 b 389 -21 215 7 294 -21 b 746 354 611 -21 746 133 b 683 583 746 443 724 522 z m 178 354 b 389 610 178 501 250 610 b 540 544 454 610 506 586 l 208 210 b 178 354 188 250 178 300 z m 600 354 b 389 99 600 208 528 99 b 250 150 331 99 285 118 l 579 479 b 600 354 593 443 600 400 z "},"õ":{"ha":778,"x_min":0,"x_max":0,"o":"m 183 853 l 276 853 b 313 901 276 872 281 901 b 485 850 356 901 418 850 b 594 999 546 850 594 890 l 500 999 b 464 950 500 978 496 950 b 292 1001 422 950 358 1001 b 183 853 232 1001 183 958 z m 389 -21 b 32 354 167 -21 32 133 b 389 729 32 575 167 729 b 746 354 611 729 746 575 b 389 -21 746 133 611 -21 z m 389 99 b 600 354 528 99 600 208 b 389 610 600 501 528 610 b 178 354 250 610 178 501 b 389 99 178 208 250 99 z "},"œ":{"ha":1347,"x_min":0,"x_max":0,"o":"m 978 99 b 772 317 849 99 772 197 l 1317 317 b 975 729 1317 569 1204 729 b 685 581 844 729 743 675 b 389 729 625 674 522 729 b 32 354 167 729 32 575 b 389 -21 32 133 167 -21 b 686 129 524 -21 626 36 b 982 -21 746 36 847 -21 b 1306 217 1164 -21 1269 82 l 1160 217 b 978 99 1147 174 1099 99 z m 975 614 b 1171 425 1093 614 1171 535 l 772 425 b 975 614 772 535 857 614 z m 389 99 b 178 354 250 99 178 208 b 389 610 178 501 250 610 b 600 354 528 610 600 501 b 389 99 600 208 528 99 z "},"p":{"ha":789,"x_min":0,"x_max":0,"o":"m 438 729 b 219 626 326 729 257 676 l 217 626 l 217 710 l 69 710 l 69 -242 l 217 -242 l 217 85 l 219 85 b 438 -21 257 32 326 -21 b 753 354 618 -21 753 121 b 438 729 753 588 618 729 z m 410 99 b 218 354 292 99 218 197 b 410 610 218 513 292 610 b 606 354 538 610 606 493 b 410 99 606 215 538 99 z "},"þ":{"ha":783,"x_min":0,"x_max":0,"o":"m 438 729 b 218 618 321 729 256 676 l 215 618 l 215 993 l 69 993 l 69 -242 l 215 -242 l 215 94 l 218 94 b 438 -21 256 32 321 -21 b 751 354 617 -21 751 121 b 438 729 751 588 617 729 z m 410 99 b 217 354 290 99 217 197 b 410 610 217 513 290 610 b 606 354 538 610 606 493 b 410 99 606 215 538 99 z "},"q":{"ha":789,"x_min":0,"x_max":0,"o":"m 572 710 l 572 626 l 569 626 b 351 729 532 676 463 729 b 36 354 171 729 36 588 b 351 -21 36 121 171 -21 b 569 85 463 -21 532 32 l 572 85 l 572 -242 l 719 -242 l 719 710 z m 379 99 b 183 354 251 99 183 215 b 379 610 183 493 251 610 b 571 354 497 610 571 513 b 379 99 571 197 497 99 z "},"r":{"ha":494,"x_min":0,"x_max":0,"o":"m 407 726 b 218 576 314 726 256 665 l 215 576 l 215 710 l 69 710 l 69 0 l 215 0 l 215 363 b 468 585 215 514 328 608 l 471 585 l 471 722 b 407 726 450 725 432 726 z "},"ŕ":{"ha":494,"x_min":0,"x_max":0,"o":"m 440 1004 l 271 1004 l 211 822 l 325 822 z m 407 726 b 218 576 314 726 256 665 l 215 576 l 215 710 l 69 710 l 69 0 l 215 0 l 215 363 b 468 585 215 514 328 608 l 471 585 l 471 722 b 407 726 450 725 432 726 z "},"ř":{"ha":494,"x_min":0,"x_max":0,"o":"m 349 822 l 483 1004 l 346 1004 l 272 894 l 269 894 l 197 1004 l 60 1004 l 194 822 z m 218 576 l 215 576 l 215 710 l 69 710 l 69 0 l 215 0 l 215 363 b 468 585 215 514 328 608 l 471 585 l 471 722 b 407 726 450 725 432 726 b 218 576 314 726 256 665 z "},"ŗ":{"ha":494,"x_min":0,"x_max":0,"o":"m 407 726 b 218 576 314 726 256 665 l 215 576 l 215 710 l 69 710 l 69 0 l 215 0 l 215 363 b 468 585 215 514 328 608 l 471 585 l 471 722 b 407 726 450 725 432 726 z m 143 -76 b 64 -158 100 -76 64 -111 b 153 -228 64 -215 104 -242 b 76 -307 153 -275 124 -299 l 76 -365 b 231 -196 192 -349 231 -267 b 143 -76 231 -128 201 -76 z "},"s":{"ha":676,"x_min":0,"x_max":0,"o":"m 376 429 b 194 531 274 453 194 458 b 329 614 194 581 242 614 b 481 501 443 614 471 557 l 622 501 b 328 729 613 625 521 729 b 47 519 150 729 47 636 b 313 310 47 358 200 336 b 501 189 417 285 501 278 b 357 94 501 144 458 94 b 167 236 207 94 174 160 l 25 236 b 360 -21 32 86 131 -21 b 649 200 532 -21 649 64 b 376 429 649 369 507 399 z "},"ś":{"ha":676,"x_min":0,"x_max":0,"o":"m 336 1004 l 276 822 l 390 822 l 506 1004 z m 376 429 b 194 531 274 453 194 458 b 329 614 194 581 242 614 b 481 501 443 614 471 557 l 622 501 b 328 729 613 625 521 729 b 47 519 150 729 47 636 b 313 310 47 358 200 336 b 501 189 417 285 501 278 b 357 94 501 144 458 94 b 167 236 207 94 174 160 l 25 236 b 360 -21 32 86 131 -21 b 649 200 532 -21 649 64 b 376 429 649 369 507 399 z "},"š":{"ha":676,"x_min":0,"x_max":0,"o":"m 125 1004 l 260 822 l 414 822 l 549 1004 l 411 1004 l 338 894 l 335 894 l 263 1004 z m 376 429 b 194 531 274 453 194 458 b 329 614 194 581 242 614 b 481 501 443 614 471 557 l 622 501 b 328 729 613 625 521 729 b 47 519 150 729 47 636 b 313 310 47 358 200 336 b 501 189 417 285 501 278 b 357 94 501 144 458 94 b 167 236 207 94 174 160 l 25 236 b 360 -21 32 86 131 -21 b 649 200 532 -21 649 64 b 376 429 649 369 507 399 z "},"ş":{"ha":676,"x_min":0,"x_max":0,"o":"m 375 -21 b 649 200 539 -15 649 68 b 376 429 649 369 507 399 b 194 531 274 453 194 458 b 329 614 194 581 242 614 b 481 501 443 614 471 557 l 622 501 b 328 729 613 625 521 729 b 47 519 150 729 47 636 b 313 310 47 358 200 336 b 501 189 417 285 501 278 b 357 94 501 144 458 94 b 167 236 207 94 174 160 l 25 236 b 304 -18 32 99 114 -3 l 231 -110 l 250 -139 b 303 -129 264 -133 288 -129 b 368 -167 346 -129 368 -140 b 296 -214 368 -196 335 -214 b 194 -193 256 -214 225 -206 l 161 -233 b 313 -274 196 -257 253 -274 b 468 -168 393 -274 468 -235 b 328 -82 468 -96 389 -74 l 328 -79 z "},"ș":{"ha":676,"x_min":0,"x_max":0,"o":"m 376 429 b 194 531 274 453 194 458 b 329 614 194 581 242 614 b 481 501 443 614 471 557 l 622 501 b 328 729 613 625 521 729 b 47 519 150 729 47 636 b 313 310 47 358 200 336 b 501 189 417 285 501 278 b 357 94 501 144 458 94 b 167 236 207 94 174 160 l 25 236 b 360 -21 32 86 131 -21 b 649 200 532 -21 649 64 b 376 429 649 369 507 399 z m 350 -228 b 274 -307 350 -275 321 -299 l 274 -365 b 428 -196 389 -349 428 -267 b 340 -76 428 -128 399 -76 b 261 -158 297 -76 261 -111 b 350 -228 261 -215 301 -242 z "},"ß":{"ha":738,"x_min":0,"x_max":0,"o":"m 215 703 b 376 894 215 818 253 894 b 514 749 468 894 514 825 b 339 604 514 650 426 604 l 304 604 l 304 493 l 343 493 b 560 283 444 493 560 443 b 294 119 560 160 474 63 l 294 0 b 436 -21 343 -14 379 -21 b 706 269 589 -21 706 99 b 508 549 706 415 628 511 l 508 551 b 660 763 589 586 660 643 b 376 1014 660 913 529 1014 b 69 703 172 1014 69 890 l 69 0 l 215 0 z "},"t":{"ha":444,"x_min":0,"x_max":0,"o":"m 408 590 l 408 710 l 275 710 l 275 933 l 128 933 l 128 710 l 25 710 l 25 590 l 128 590 l 128 193 b 308 -10 128 43 192 -10 b 408 1 347 -10 379 -6 l 408 121 b 275 206 314 115 275 125 l 275 590 z "},"ŧ":{"ha":444,"x_min":0,"x_max":0,"o":"m 408 590 l 408 710 l 275 710 l 275 933 l 128 933 l 128 710 l 25 710 l 25 590 l 128 590 l 128 472 l 25 472 l 25 365 l 128 365 l 128 193 b 308 -10 128 43 192 -10 b 408 1 347 -10 379 -6 l 408 121 b 275 206 314 115 275 125 l 275 365 l 408 365 l 408 472 l 275 472 l 275 590 z "},"ť":{"ha":468,"x_min":0,"x_max":0,"o":"m 424 1069 b 339 986 371 1069 339 1033 b 442 910 339 933 381 896 b 350 833 442 872 394 840 l 350 779 b 514 950 468 792 514 878 b 424 1069 514 1018 483 1069 z m 275 933 l 128 933 l 128 710 l 25 710 l 25 590 l 128 590 l 128 193 b 308 -10 128 43 192 -10 b 408 1 347 -10 379 -6 l 408 121 b 275 206 314 115 275 125 l 275 590 l 408 590 l 408 710 l 275 710 z "},"ţ":{"ha":444,"x_min":0,"x_max":0,"o":"m 279 -74 l 279 -71 l 329 -10 b 408 1 360 -8 385 -4 l 408 121 b 275 206 314 115 275 125 l 275 590 l 408 590 l 408 710 l 275 710 l 275 933 l 128 933 l 128 710 l 25 710 l 25 590 l 128 590 l 128 193 b 258 -6 128 65 174 8 l 182 -101 l 201 -131 b 254 -121 215 -125 239 -121 b 319 -158 297 -121 319 -132 b 247 -206 319 -187 286 -206 b 146 -185 207 -206 176 -197 l 113 -225 b 264 -265 147 -249 204 -265 b 419 -160 344 -265 419 -226 b 279 -74 419 -87 340 -65 z "},"ț":{"ha":444,"x_min":0,"x_max":0,"o":"m 408 590 l 408 710 l 275 710 l 275 933 l 128 933 l 128 710 l 25 710 l 25 590 l 128 590 l 128 193 b 308 -10 128 43 192 -10 b 408 1 347 -10 379 -6 l 408 121 b 275 206 314 115 275 125 l 275 590 z m 292 -68 b 213 -150 249 -68 213 -103 b 301 -219 213 -207 253 -233 b 225 -299 301 -267 272 -290 l 225 -357 b 379 -187 340 -340 379 -258 b 292 -68 379 -119 350 -68 z "},"u":{"ha":751,"x_min":0,"x_max":0,"o":"m 536 710 l 536 278 b 351 104 536 172 464 104 b 211 261 251 104 211 165 l 211 710 l 64 710 l 64 219 b 300 -19 64 57 168 -19 b 533 92 422 -19 496 36 l 536 92 l 536 0 l 682 0 l 682 710 z "},"ú":{"ha":751,"x_min":0,"x_max":0,"o":"m 543 1004 l 374 1004 l 314 822 l 428 822 z m 536 710 l 536 278 b 351 104 536 172 464 104 b 211 261 251 104 211 165 l 211 710 l 64 710 l 64 219 b 300 -19 64 57 168 -19 b 533 92 422 -19 496 36 l 536 92 l 536 0 l 682 0 l 682 710 z "},"û":{"ha":751,"x_min":0,"x_max":0,"o":"m 372 933 l 375 933 l 449 824 l 586 824 l 451 1006 l 297 1006 l 163 824 l 300 824 z m 536 710 l 536 278 b 351 104 536 172 464 104 b 211 261 251 104 211 165 l 211 710 l 64 710 l 64 219 b 300 -19 64 57 168 -19 b 533 92 422 -19 496 36 l 536 92 l 536 0 l 682 0 l 682 710 z "},"ü":{"ha":751,"x_min":0,"x_max":0,"o":"m 256 846 b 336 925 307 846 336 883 b 256 1007 336 969 307 1007 b 174 925 203 1007 174 969 b 256 846 174 883 203 846 z m 493 846 b 574 925 544 846 574 883 b 493 1007 574 969 544 1007 b 411 925 440 1007 411 969 b 493 846 411 883 440 846 z m 536 710 l 536 278 b 351 104 536 172 464 104 b 211 261 251 104 211 165 l 211 710 l 64 710 l 64 219 b 300 -19 64 57 168 -19 b 533 92 422 -19 496 36 l 536 92 l 536 0 l 682 0 l 682 710 z "},"ù":{"ha":751,"x_min":0,"x_max":0,"o":"m 432 822 l 372 1004 l 203 1004 l 318 822 z m 536 710 l 536 278 b 351 104 536 172 464 104 b 211 261 251 104 211 165 l 211 710 l 64 710 l 64 219 b 300 -19 64 57 168 -19 b 533 92 422 -19 496 36 l 536 92 l 536 0 l 682 0 l 682 710 z "},"ű":{"ha":751,"x_min":0,"x_max":0,"o":"m 421 1004 l 251 1004 l 192 822 l 306 822 z m 653 1004 l 483 1004 l 424 822 l 538 822 z m 536 710 l 536 278 b 351 104 536 172 464 104 b 211 261 251 104 211 165 l 211 710 l 64 710 l 64 219 b 300 -19 64 57 168 -19 b 533 92 422 -19 496 36 l 536 92 l 536 0 l 682 0 l 682 710 z "},"ū":{"ha":751,"x_min":0,"x_max":0,"o":"m 560 972 l 189 972 l 189 861 l 560 861 z m 536 710 l 536 278 b 351 104 536 172 464 104 b 211 261 251 104 211 165 l 211 710 l 64 710 l 64 219 b 300 -19 64 57 168 -19 b 533 92 422 -19 496 36 l 536 92 l 536 0 l 682 0 l 682 710 z "},"ų":{"ha":751,"x_min":0,"x_max":0,"o":"m 649 -147 b 600 -108 621 -147 600 -133 b 683 0 600 -78 631 -42 l 682 0 l 682 710 l 536 710 l 536 278 b 351 104 536 172 464 104 b 211 261 251 104 211 165 l 211 710 l 64 710 l 64 219 b 300 -19 64 57 168 -19 b 533 92 422 -19 496 36 l 536 92 l 536 0 l 582 0 b 479 -139 533 -21 479 -74 b 615 -246 479 -204 525 -246 b 713 -232 649 -246 685 -240 l 713 -135 b 649 -147 693 -142 674 -147 z "},"ů":{"ha":751,"x_min":0,"x_max":0,"o":"m 374 804 b 501 931 443 804 501 853 b 374 1058 501 1006 443 1058 b 246 931 304 1058 246 1006 b 374 804 246 853 304 804 z m 374 996 b 436 931 407 996 436 971 b 374 865 436 890 407 865 b 311 931 340 865 311 890 b 374 996 311 971 340 996 z m 536 710 l 536 278 b 351 104 536 172 464 104 b 211 261 251 104 211 165 l 211 710 l 64 710 l 64 219 b 300 -19 64 57 168 -19 b 533 92 422 -19 496 36 l 536 92 l 536 0 l 682 0 l 682 710 z "},"v":{"ha":668,"x_min":0,"x_max":0,"o":"m 0 710 l 251 0 l 417 0 l 668 710 l 514 710 l 335 154 l 333 154 l 154 710 z "},"w":{"ha":1042,"x_min":0,"x_max":0,"o":"m 3 710 l 221 0 l 367 0 l 518 542 l 521 542 l 674 0 l 821 0 l 1038 710 l 883 710 l 740 171 l 738 171 l 592 710 l 449 710 l 304 171 l 301 171 l 157 710 z "},"ẃ":{"ha":1042,"x_min":0,"x_max":0,"o":"m 521 1004 l 461 822 l 575 822 l 690 1004 z m 3 710 l 221 0 l 367 0 l 518 542 l 521 542 l 674 0 l 821 0 l 1038 710 l 883 710 l 740 171 l 738 171 l 592 710 l 449 710 l 304 171 l 301 171 l 157 710 z "},"ŵ":{"ha":1042,"x_min":0,"x_max":0,"o":"m 310 824 l 447 824 l 519 933 l 522 933 l 596 824 l 733 824 l 599 1006 l 444 1006 z m 3 710 l 221 0 l 367 0 l 518 542 l 521 542 l 674 0 l 821 0 l 1038 710 l 883 710 l 740 171 l 738 171 l 592 710 l 449 710 l 304 171 l 301 171 l 157 710 z "},"ẅ":{"ha":1042,"x_min":0,"x_max":0,"o":"m 321 925 b 403 846 321 883 350 846 b 483 925 454 846 483 883 b 403 1007 483 969 454 1007 b 321 925 350 1007 321 969 z m 558 925 b 640 846 558 883 588 846 b 721 925 692 846 721 883 b 640 1007 721 969 692 1007 b 558 925 588 1007 558 969 z m 3 710 l 221 0 l 367 0 l 518 542 l 521 542 l 674 0 l 821 0 l 1038 710 l 883 710 l 740 171 l 738 171 l 592 710 l 449 710 l 304 171 l 301 171 l 157 710 z "},"ẁ":{"ha":1042,"x_min":0,"x_max":0,"o":"m 519 1004 l 350 1004 l 465 822 l 579 822 z m 3 710 l 221 0 l 367 0 l 518 542 l 521 542 l 674 0 l 821 0 l 1038 710 l 883 710 l 740 171 l 738 171 l 592 710 l 449 710 l 304 171 l 301 171 l 157 710 z "},"x":{"ha":724,"x_min":0,"x_max":0,"o":"m 33 710 l 274 363 l 8 0 l 179 0 l 360 267 l 363 267 l 546 0 l 715 0 l 450 363 l 689 710 l 524 710 l 363 460 l 360 460 l 199 710 z "},"y":{"ha":697,"x_min":0,"x_max":0,"o":"m 696 710 l 540 710 l 358 167 l 356 167 l 157 710 l 0 710 l 257 72 b 238 -82 283 6 264 -50 b 99 -117 206 -121 160 -125 l 86 -117 l 86 -228 b 190 -242 114 -235 149 -242 b 413 -44 326 -242 372 -154 z "},"ý":{"ha":697,"x_min":0,"x_max":0,"o":"m 349 1004 l 289 822 l 403 822 l 518 1004 z m 696 710 l 540 710 l 358 167 l 356 167 l 157 710 l 0 710 l 257 72 b 238 -82 283 6 264 -50 b 99 -117 206 -121 160 -125 l 86 -117 l 86 -228 b 190 -242 114 -235 149 -242 b 413 -44 326 -242 372 -154 z "},"ŷ":{"ha":697,"x_min":0,"x_max":0,"o":"m 138 824 l 275 824 l 347 933 l 350 933 l 424 824 l 561 824 l 426 1006 l 272 1006 z m 696 710 l 540 710 l 358 167 l 356 167 l 157 710 l 0 710 l 257 72 b 238 -82 283 6 264 -50 b 99 -117 206 -121 160 -125 l 86 -117 l 86 -228 b 190 -242 114 -235 149 -242 b 413 -44 326 -242 372 -154 z "},"ÿ":{"ha":697,"x_min":0,"x_max":0,"o":"m 149 925 b 231 846 149 883 178 846 b 311 925 282 846 311 883 b 231 1007 311 969 282 1007 b 149 925 178 1007 149 969 z m 386 925 b 468 846 386 883 415 846 b 549 925 519 846 549 883 b 468 1007 549 969 519 1007 b 386 925 415 1007 386 969 z m 696 710 l 540 710 l 358 167 l 356 167 l 157 710 l 0 710 l 257 72 b 238 -82 283 6 264 -50 b 99 -117 206 -121 160 -125 l 86 -117 l 86 -228 b 190 -242 114 -235 149 -242 b 413 -44 326 -242 372 -154 z "},"ỳ":{"ha":697,"x_min":0,"x_max":0,"o":"m 347 1004 l 178 1004 l 293 822 l 407 822 z m 696 710 l 540 710 l 358 167 l 356 167 l 157 710 l 0 710 l 257 72 b 238 -82 283 6 264 -50 b 99 -117 206 -121 160 -125 l 86 -117 l 86 -228 b 190 -242 114 -235 149 -242 b 413 -44 326 -242 372 -154 z "},"z":{"ha":669,"x_min":0,"x_max":0,"o":"m 43 108 l 43 0 l 636 0 l 636 119 l 231 119 l 231 122 l 621 613 l 621 710 l 68 710 l 68 590 l 425 590 l 425 588 z "},"ź":{"ha":669,"x_min":0,"x_max":0,"o":"m 346 1004 l 286 822 l 400 822 l 515 1004 z m 43 108 l 43 0 l 636 0 l 636 119 l 231 119 l 231 122 l 621 613 l 621 710 l 68 710 l 68 590 l 425 590 l 425 588 z "},"ž":{"ha":669,"x_min":0,"x_max":0,"o":"m 135 1004 l 269 822 l 424 822 l 558 1004 l 421 1004 l 347 894 l 344 894 l 272 1004 z m 43 108 l 43 0 l 636 0 l 636 119 l 231 119 l 231 122 l 621 613 l 621 710 l 68 710 l 68 590 l 425 590 l 425 588 z "},"ż":{"ha":669,"x_min":0,"x_max":0,"o":"m 264 925 b 346 846 264 883 293 846 b 426 925 397 846 426 883 b 346 1007 426 969 397 1007 b 264 925 293 1007 264 969 z m 43 108 l 43 0 l 636 0 l 636 119 l 231 119 l 231 122 l 621 613 l 621 710 l 68 710 l 68 590 l 425 590 l 425 588 z "},"⁄":{"ha":358,"x_min":0,"x_max":0,"o":"m 492 993 l -249 0 l -133 0 l 607 993 z "},"*":{"ha":542,"x_min":0,"x_max":0,"o":"m 486 799 l 456 885 l 319 836 l 319 993 l 224 993 l 224 836 l 86 885 l 56 799 l 194 756 l 106 631 l 183 575 l 271 707 l 358 575 l 435 631 l 347 756 z "},"\\":{"ha":561,"x_min":0,"x_max":0,"o":"m 21 993 l 406 0 l 539 0 l 154 993 z "},"·":{"ha":292,"x_min":0,"x_max":0,"o":"m 149 340 b 238 431 199 340 238 375 b 149 521 238 485 199 521 b 58 431 97 521 58 485 b 149 340 58 375 97 340 z "},"•":{"ha":457,"x_min":0,"x_max":0,"o":"m 229 264 b 408 444 339 264 408 346 b 229 625 408 543 339 625 b 49 444 118 625 49 543 b 229 264 49 346 118 264 z "},":":{"ha":300,"x_min":0,"x_max":0,"o":"m 150 415 b 239 506 200 415 239 450 b 150 596 239 560 200 596 b 60 506 99 596 60 560 b 150 415 60 450 99 415 z m 150 -11 b 239 79 200 -11 239 24 b 150 169 239 133 200 169 b 60 79 99 169 60 133 b 150 -11 60 24 99 -11 z "},",":{"ha":296,"x_min":0,"x_max":0,"o":"m 154 -10 b 69 -115 154 -62 121 -106 l 69 -194 b 240 42 190 -175 240 -60 b 146 169 240 119 208 169 b 56 76 96 169 56 136 b 154 -10 56 11 100 -19 z "},"…":{"ha":781,"x_min":0,"x_max":0,"o":"m 146 -11 b 235 79 196 -11 235 24 b 146 169 235 133 196 169 b 56 79 94 169 56 133 b 146 -11 56 24 94 -11 z m 390 -11 b 479 79 440 -11 479 24 b 390 169 479 133 440 169 b 300 79 339 169 300 133 b 390 -11 300 24 339 -11 z m 635 -11 b 724 79 685 -11 724 24 b 635 169 724 133 685 169 b 544 79 583 169 544 133 b 635 -11 544 24 583 -11 z "},"!":{"ha":342,"x_min":0,"x_max":0,"o":"m 96 993 l 96 731 l 135 278 l 217 278 l 256 731 l 256 993 z m 176 -11 b 265 79 226 -11 265 24 b 176 169 265 133 226 169 b 86 79 125 169 86 133 b 176 -11 86 24 125 -11 z "},"¡":{"ha":351,"x_min":0,"x_max":0,"o":"m 176 824 b 86 733 125 824 86 789 b 176 643 86 679 125 643 b 265 733 226 643 265 679 b 176 824 265 789 226 824 z m 96 -181 l 256 -181 l 256 82 l 217 535 l 135 535 l 96 82 z "},"#":{"ha":814,"x_min":0,"x_max":0,"o":"m 751 582 l 775 701 l 644 701 l 697 960 l 576 960 l 525 701 l 372 701 l 425 960 l 306 960 l 253 701 l 115 701 l 92 582 l 229 582 l 189 381 l 63 381 l 40 261 l 164 261 l 111 0 l 231 0 l 283 261 l 436 261 l 383 0 l 503 0 l 556 261 l 701 261 l 724 381 l 581 381 l 621 582 z m 460 381 l 308 381 l 349 582 l 500 582 z "},".":{"ha":292,"x_min":0,"x_max":0,"o":"m 146 -11 b 235 79 196 -11 235 24 b 146 169 235 133 196 169 b 56 79 94 169 56 133 b 146 -11 56 24 94 -11 z "},"?":{"ha":722,"x_min":0,"x_max":0,"o":"m 183 675 b 371 876 183 822 258 876 b 524 751 467 876 524 821 b 389 572 524 656 456 631 b 251 276 303 500 251 425 l 394 276 b 536 521 394 417 453 461 b 685 754 619 581 685 635 b 375 1014 685 907 551 1014 b 22 675 136 1014 22 868 z m 324 -11 b 413 79 374 -11 413 24 b 324 169 413 133 374 169 b 233 79 272 169 233 133 b 324 -11 233 24 272 -11 z "},"¿":{"ha":719,"x_min":0,"x_max":0,"o":"m 396 824 b 307 733 346 824 307 789 b 396 643 307 679 346 643 b 486 733 447 643 486 679 b 396 824 486 789 447 824 z m 536 138 b 349 -64 536 -10 461 -64 b 196 61 253 -64 196 -8 b 331 240 196 157 264 182 b 468 536 417 313 468 388 l 325 536 b 183 292 325 396 267 351 b 35 58 100 232 35 178 b 344 -201 35 -94 168 -201 b 697 138 583 -201 697 -56 z "},"\"":{"ha":479,"x_min":0,"x_max":0,"o":"m 58 993 l 76 671 l 178 671 l 196 993 z m 285 993 l 303 671 l 404 671 l 422 993 z "},"'":{"ha":254,"x_min":0,"x_max":0,"o":"m 58 993 l 76 671 l 178 671 l 196 993 z "},";":{"ha":304,"x_min":0,"x_max":0,"o":"m 153 415 b 242 506 203 415 242 450 b 153 596 242 560 203 596 b 63 506 101 596 63 560 b 153 415 63 450 101 415 z m 158 -10 b 74 -115 158 -62 125 -106 l 74 -194 b 244 42 194 -175 244 -60 b 150 169 244 119 213 169 b 60 76 100 169 60 136 b 158 -10 60 11 104 -19 z "},"/":{"ha":568,"x_min":0,"x_max":0,"o":"m 538 993 l 404 993 l 19 0 l 153 0 z "},"_":{"ha":576,"x_min":0,"x_max":0,"o":"m -3 -106 l -3 -242 l 579 -242 l 579 -106 z "},"{":{"ha":457,"x_min":0,"x_max":0,"o":"m 33 511 l 33 375 b 119 256 104 375 119 326 l 119 104 b 383 -171 119 -129 207 -171 l 414 -171 l 414 -35 l 383 -35 b 279 100 321 -35 279 -7 l 279 292 b 193 442 279 372 246 414 l 193 444 b 279 593 246 472 279 514 l 279 790 b 383 919 279 892 321 919 l 414 919 l 414 1056 l 383 1056 b 119 786 207 1056 119 1019 l 119 629 b 33 511 119 558 104 510 z "},"}":{"ha":457,"x_min":0,"x_max":0,"o":"m 424 511 b 338 629 353 510 338 558 l 338 786 b 74 1056 338 1019 250 1056 l 43 1056 l 43 919 l 74 919 b 178 790 136 919 178 892 l 178 593 b 264 444 178 514 211 472 l 264 442 b 178 292 211 414 178 372 l 178 100 b 74 -35 178 -7 136 -35 l 43 -35 l 43 -171 l 74 -171 b 338 104 250 -171 338 -129 l 338 256 b 424 375 338 326 353 375 z "},"[":{"ha":457,"x_min":0,"x_max":0,"o":"m 99 1056 l 99 -171 l 414 -171 l 414 -35 l 260 -35 l 260 919 l 414 919 l 414 1056 z "},"]":{"ha":457,"x_min":0,"x_max":0,"o":"m 358 1056 l 43 1056 l 43 919 l 197 919 l 197 -35 l 43 -35 l 43 -171 l 358 -171 z "},"(":{"ha":439,"x_min":0,"x_max":0,"o":"m 283 1056 b 93 440 182 915 93 700 b 283 -171 93 189 182 -31 l 411 -171 b 253 440 324 -3 253 189 b 411 1056 253 697 324 888 z "},")":{"ha":439,"x_min":0,"x_max":0,"o":"m 157 1056 l 29 1056 b 188 440 117 888 188 697 b 29 -171 188 189 117 -3 l 157 -171 b 347 440 258 -31 347 189 b 157 1056 347 700 258 915 z "},"—":{"ha":1389,"x_min":0,"x_max":0,"o":"m 139 421 l 139 283 l 1250 283 l 1250 421 z "},"–":{"ha":694,"x_min":0,"x_max":0,"o":"m 0 421 l 0 285 l 694 285 l 694 421 z "},"-":{"ha":474,"x_min":0,"x_max":0,"o":"m 50 421 l 50 285 l 424 285 l 424 421 z "},"«":{"ha":543,"x_min":0,"x_max":0,"o":"m 42 274 l 239 103 l 239 244 l 115 349 l 115 351 l 239 456 l 239 597 l 42 426 z m 303 274 l 501 103 l 501 244 l 376 349 l 376 351 l 501 456 l 501 597 l 303 426 z "},"»":{"ha":543,"x_min":0,"x_max":0,"o":"m 240 274 l 240 426 l 42 597 l 42 456 l 167 351 l 167 349 l 42 244 l 42 103 z m 501 274 l 501 426 l 304 597 l 304 456 l 428 351 l 428 349 l 304 244 l 304 103 z "},"‹":{"ha":350,"x_min":0,"x_max":0,"o":"m 67 274 l 281 103 l 281 244 l 144 349 l 144 351 l 281 456 l 281 597 l 67 426 z "},"›":{"ha":350,"x_min":0,"x_max":0,"o":"m 283 274 l 283 426 l 69 597 l 69 456 l 206 351 l 206 349 l 69 244 l 69 103 z "},"„":{"ha":531,"x_min":0,"x_max":0,"o":"m 153 -10 b 68 -115 153 -62 119 -106 l 68 -194 b 239 42 189 -175 239 -60 b 144 169 239 119 207 169 b 54 76 94 169 54 136 b 153 -10 54 11 99 -19 z m 390 -10 b 306 -115 390 -62 357 -106 l 306 -194 b 476 42 426 -175 476 -60 b 382 169 476 119 444 169 b 292 76 332 169 292 136 b 390 -10 292 11 336 -19 z "},"“":{"ha":529,"x_min":0,"x_max":0,"o":"m 140 813 b 225 918 140 865 174 908 l 225 997 b 54 761 104 978 54 863 b 149 633 54 683 86 633 b 239 726 199 633 239 667 b 140 813 239 792 194 822 z m 376 813 b 461 918 376 865 410 908 l 461 997 b 290 761 340 978 290 863 b 385 633 290 683 322 633 b 475 726 435 633 475 667 b 376 813 475 792 431 822 z "},"”":{"ha":529,"x_min":0,"x_max":0,"o":"m 153 825 b 68 719 153 772 119 729 l 68 640 b 239 876 189 660 239 775 b 144 1004 239 954 207 1004 b 54 911 94 1004 54 971 b 153 825 54 846 99 815 z m 389 825 b 304 719 389 772 356 729 l 304 640 b 475 876 425 660 475 775 b 381 1004 475 954 443 1004 b 290 911 331 1004 290 971 b 389 825 290 846 335 815 z "},"‘":{"ha":293,"x_min":0,"x_max":0,"o":"m 140 813 b 225 918 140 865 174 908 l 225 997 b 54 761 104 978 54 863 b 149 633 54 683 86 633 b 239 726 199 633 239 667 b 140 813 239 792 194 822 z "},"’":{"ha":293,"x_min":0,"x_max":0,"o":"m 153 825 b 68 719 153 772 119 729 l 68 640 b 239 876 189 660 239 775 b 144 1004 239 954 207 1004 b 54 911 94 1004 54 971 b 153 825 54 846 99 815 z "},"‚":{"ha":293,"x_min":0,"x_max":0,"o":"m 153 -10 b 68 -115 153 -62 119 -106 l 68 -194 b 239 42 189 -175 239 -60 b 144 169 239 119 207 169 b 54 76 94 169 54 136 b 153 -10 54 11 99 -19 z "}," ":{"ha":264,"x_min":0,"x_max":0,"o":""},"¢":{"ha":732,"x_min":0,"x_max":0,"o":"m 417 101 l 417 607 b 558 450 515 593 553 515 l 704 450 b 417 728 688 600 581 714 l 417 822 l 333 822 l 333 726 b 32 354 149 706 32 560 b 333 -18 32 150 149 4 l 333 -128 l 417 -128 l 417 -19 b 704 264 582 -6 694 111 l 558 264 b 417 101 553 193 515 115 z m 178 354 b 333 604 178 471 225 579 l 333 104 b 178 354 224 128 178 238 z "},"¤":{"ha":686,"x_min":0,"x_max":0,"o":"m 617 481 b 575 633 617 540 601 592 l 664 722 l 583 799 l 497 713 b 343 758 453 743 399 758 b 189 714 288 758 233 743 l 101 800 l 24 722 l 111 635 b 69 481 85 593 69 540 b 111 326 69 421 85 368 l 24 239 l 101 161 l 188 247 b 343 201 233 217 286 201 b 499 247 399 201 453 218 l 585 161 l 664 239 l 575 328 b 617 481 601 369 617 421 z m 197 481 b 343 653 197 593 256 653 b 489 481 431 653 489 593 b 343 307 489 368 431 307 b 197 481 256 307 197 368 z "},"$":{"ha":825,"x_min":0,"x_max":0,"o":"m 783 251 b 460 557 783 451 640 503 l 460 828 b 599 660 536 808 588 753 l 760 660 b 460 968 750 838 626 946 l 460 1053 l 376 1053 l 376 972 b 60 703 182 967 60 861 b 364 428 60 528 219 468 l 376 424 l 376 121 b 183 317 260 138 190 203 l 22 317 b 376 -18 31 113 179 1 l 376 -126 l 460 -126 l 460 -21 b 783 251 674 -14 783 106 z m 219 718 b 376 835 219 786 281 831 l 376 582 b 219 718 283 611 219 642 z m 460 117 l 460 399 b 622 249 569 364 622 329 b 460 117 622 174 571 122 z "},"€":{"ha":896,"x_min":0,"x_max":0,"o":"m 501 117 b 286 350 371 117 307 214 l 543 350 l 543 433 l 278 433 b 276 476 276 447 276 463 l 276 513 l 543 513 l 543 596 l 285 596 b 501 835 306 735 369 835 b 693 626 639 835 678 725 l 854 626 b 503 972 835 824 722 972 b 124 596 283 972 156 821 l 42 596 l 42 513 l 115 513 l 115 476 b 117 433 115 463 115 447 l 42 433 l 42 350 l 124 350 b 503 -21 158 126 285 -21 b 854 347 724 -21 836 128 l 693 347 b 501 117 686 226 640 117 z "},"£":{"ha":781,"x_min":0,"x_max":0,"o":"m 699 186 b 546 124 653 151 611 124 b 343 183 467 124 436 183 b 218 144 288 183 250 160 l 217 147 b 328 367 285 196 328 268 b 326 394 328 376 328 386 l 500 394 l 500 510 l 288 510 b 235 678 263 561 235 611 b 407 835 235 769 292 835 b 583 636 532 835 583 761 l 744 636 b 406 972 744 829 646 972 b 75 692 156 972 75 810 b 125 510 75 613 101 558 l 51 510 l 51 394 l 167 394 b 168 374 168 388 168 381 b 39 117 168 263 114 165 l 121 0 b 293 65 193 46 235 65 b 560 -21 386 65 432 -21 b 761 64 650 -21 701 19 z "},"¥":{"ha":818,"x_min":0,"x_max":0,"o":"m 806 953 l 631 953 l 410 521 l 407 521 l 186 953 l 10 953 l 307 424 l 89 424 l 89 340 l 328 340 l 328 261 l 89 261 l 89 178 l 328 178 l 328 0 l 489 0 l 489 178 l 726 178 l 726 261 l 489 261 l 489 340 l 726 340 l 726 424 l 510 424 z "},"+":{"ha":781,"x_min":0,"x_max":0,"o":"m 322 386 l 322 124 l 458 124 l 458 386 l 713 386 l 713 522 l 458 522 l 458 785 l 322 785 l 322 522 l 68 522 l 68 386 z "},"−":{"ha":781,"x_min":0,"x_max":0,"o":"m 68 529 l 68 392 l 713 392 l 713 529 z "},"×":{"ha":781,"x_min":0,"x_max":0,"o":"m 693 660 l 596 757 l 389 550 l 182 757 l 85 660 l 292 454 l 85 247 l 182 150 l 389 357 l 596 150 l 693 247 l 486 454 z "},"÷":{"ha":781,"x_min":0,"x_max":0,"o":"m 390 613 b 482 697 447 613 482 643 b 390 782 482 751 447 782 b 299 697 332 782 299 751 b 390 613 299 643 332 613 z m 68 386 l 713 386 l 713 522 l 68 522 z m 390 124 b 482 208 447 124 482 154 b 390 293 482 263 447 293 b 299 208 332 293 299 263 b 390 124 299 154 332 124 z "},"=":{"ha":779,"x_min":0,"x_max":0,"o":"m 72 624 l 72 488 l 710 488 l 710 624 z m 72 379 l 72 243 l 710 243 l 710 379 z "},"≠":{"ha":779,"x_min":0,"x_max":0,"o":"m 710 488 l 710 624 l 539 624 l 599 750 l 489 750 l 429 624 l 72 624 l 72 488 l 365 488 l 314 379 l 72 379 l 72 243 l 250 243 l 185 106 l 296 106 l 361 243 l 710 243 l 710 379 l 425 379 l 475 488 z "},">":{"ha":706,"x_min":0,"x_max":0,"o":"m 72 119 l 639 356 l 639 507 l 72 744 l 72 607 l 518 432 l 518 429 l 72 256 z "},"<":{"ha":736,"x_min":0,"x_max":0,"o":"m 633 119 l 633 256 l 188 429 l 188 432 l 633 607 l 633 744 l 67 507 l 67 356 z "},"≥":{"ha":706,"x_min":0,"x_max":0,"o":"m 72 158 l 639 375 l 639 526 l 72 744 l 72 607 l 518 453 l 518 450 l 72 296 z m 72 117 l 72 -3 l 639 -3 l 639 117 z "},"≤":{"ha":736,"x_min":0,"x_max":0,"o":"m 633 158 l 633 296 l 188 450 l 188 453 l 633 607 l 633 744 l 67 526 l 67 375 z m 633 117 l 67 117 l 67 -3 l 633 -3 z "},"±":{"ha":781,"x_min":0,"x_max":0,"o":"m 68 425 l 322 425 l 322 201 l 458 201 l 458 425 l 713 425 l 713 561 l 458 561 l 458 785 l 322 785 l 322 561 l 68 561 z m 68 119 l 68 0 l 713 0 l 713 119 z "},"≈":{"ha":772,"x_min":0,"x_max":0,"o":"m 550 464 b 710 650 671 464 710 553 l 600 650 b 528 588 600 610 583 588 b 210 640 438 588 310 640 b 49 454 88 640 49 551 l 160 454 b 231 517 160 494 175 517 b 550 464 321 517 450 464 z m 550 219 b 710 406 671 219 710 308 l 600 406 b 528 343 600 367 583 343 b 210 397 438 343 310 397 b 49 210 88 397 49 308 l 160 210 b 231 272 160 250 175 272 b 550 219 321 272 450 219 z "},"~":{"ha":568,"x_min":0,"x_max":0,"o":"m 44 361 l 156 361 b 210 422 156 388 167 422 b 389 361 260 422 304 361 b 526 550 478 361 526 433 l 415 550 b 363 490 415 525 404 490 b 182 550 311 490 268 550 b 44 361 93 550 44 478 z "},"¬":{"ha":761,"x_min":0,"x_max":0,"o":"m 503 431 l 503 196 l 658 196 l 658 567 l 78 567 l 78 431 z "},"∅":{"ha":1107,"x_min":0,"x_max":0,"o":"m 943 814 l 1032 903 l 976 958 l 886 868 b 554 981 797 940 682 981 b 42 479 268 981 42 776 b 164 146 42 346 88 231 l 75 57 l 131 1 l 221 92 b 554 -21 310 19 426 -21 b 1065 479 840 -21 1065 182 b 943 814 1065 613 1019 728 z m 119 479 b 554 901 119 731 314 901 b 829 811 658 901 754 869 l 221 203 b 119 479 157 274 119 369 z m 554 58 b 278 149 449 58 353 92 l 886 757 b 988 479 950 686 988 590 b 554 58 988 229 793 58 z "},"∞":{"ha":997,"x_min":0,"x_max":0,"o":"m 43 422 b 253 176 43 256 146 176 b 499 331 371 176 444 268 l 501 331 b 744 176 554 268 626 176 b 954 422 851 176 954 256 b 744 669 954 592 851 669 b 501 531 626 669 554 593 l 499 531 b 253 669 444 593 371 669 b 43 422 146 669 43 592 z m 272 301 b 167 424 207 301 167 346 b 272 546 167 501 207 546 b 436 424 346 546 396 474 b 272 301 396 374 346 301 z m 725 301 b 561 424 653 301 601 374 b 725 546 601 474 653 546 b 831 424 790 546 831 501 b 725 301 831 346 790 301 z "},"∫":{"ha":482,"x_min":0,"x_max":0,"o":"m 311 -7 l 311 744 b 474 885 311 847 351 903 l 474 1014 b 356 1028 447 1021 406 1028 b 151 790 213 1028 151 932 l 151 39 b -11 -101 151 -64 111 -119 l -11 -231 b 106 -244 15 -237 56 -244 b 311 -7 250 -244 311 -149 z "},"∏":{"ha":983,"x_min":0,"x_max":0,"o":"m 90 993 l 90 -139 l 251 -139 l 251 857 l 732 857 l 732 -139 l 893 -139 l 893 993 z "},"∑":{"ha":853,"x_min":0,"x_max":0,"o":"m 51 1 l 51 -139 l 804 -139 l 804 -3 l 231 -3 l 231 0 l 574 404 l 574 482 l 240 854 l 240 857 l 790 857 l 790 993 l 51 993 l 51 854 l 425 440 l 425 438 z "},"√":{"ha":836,"x_min":0,"x_max":0,"o":"m 19 458 l 19 322 l 124 322 l 293 -139 l 439 -139 l 824 993 l 664 993 l 367 57 l 364 57 l 231 458 z "},"∂":{"ha":776,"x_min":0,"x_max":0,"o":"m 564 567 b 365 654 521 622 456 654 b 50 301 183 654 50 485 b 354 -21 50 103 171 -21 b 724 439 621 -21 724 207 b 226 993 724 729 581 983 l 226 857 b 564 569 390 847 529 763 z m 367 111 b 207 293 275 111 207 186 b 403 522 207 414 282 522 b 564 340 503 522 564 436 b 367 111 564 218 490 111 z "},"%":{"ha":1154,"x_min":0,"x_max":0,"o":"m 265 428 b 499 704 426 428 499 554 b 265 981 499 853 426 981 b 32 704 107 981 32 853 b 265 428 32 554 107 428 z m 885 960 l 774 960 l 269 0 l 381 0 z m 265 533 b 156 704 189 533 156 599 b 265 874 156 810 189 874 b 375 704 342 874 375 810 b 265 533 375 599 342 533 z m 889 -21 b 1122 256 1050 -21 1122 107 b 889 532 1122 406 1050 532 b 656 256 731 532 656 406 b 889 -21 656 107 731 -21 z m 889 86 b 779 256 814 86 779 150 b 889 426 779 361 814 426 b 999 256 965 426 999 361 b 889 86 999 150 965 86 z "},"‰":{"ha":1675,"x_min":0,"x_max":0,"o":"m 265 428 b 499 704 426 428 499 554 b 265 981 499 853 426 981 b 32 704 107 981 32 853 b 265 428 32 554 107 428 z m 885 960 l 774 960 l 269 0 l 381 0 z m 265 533 b 156 704 189 533 156 599 b 265 874 156 810 189 874 b 375 704 342 874 375 810 b 265 533 375 599 342 533 z m 889 -21 b 1122 256 1050 -21 1122 107 b 889 532 1122 406 1050 532 b 656 256 731 532 656 406 b 889 -21 656 107 731 -21 z m 1410 -21 b 1643 256 1571 -21 1643 107 b 1410 532 1643 406 1571 532 b 1176 256 1251 532 1176 406 b 1410 -21 1176 107 1251 -21 z m 889 86 b 779 256 814 86 779 150 b 889 426 779 361 814 426 b 999 256 965 426 999 361 b 889 86 999 150 965 86 z m 1410 86 b 1300 256 1335 86 1300 150 b 1410 426 1300 361 1335 426 b 1519 256 1486 426 1519 361 b 1410 86 1519 150 1486 86 z "},"↑":{"ha":869,"x_min":0,"x_max":0,"o":"m 828 596 l 435 960 l 42 596 l 124 511 l 375 747 l 375 0 l 494 0 l 494 747 l 746 511 z "},"↗":{"ha":825,"x_min":0,"x_max":0,"o":"m 783 299 l 763 833 l 226 854 l 225 736 l 569 725 l 42 197 l 126 114 l 654 642 l 665 296 z "},"→":{"ha":1043,"x_min":0,"x_max":0,"o":"m 638 51 l 1001 443 l 638 836 l 553 756 l 789 503 l 42 503 l 42 383 l 789 383 l 553 132 z "},"↘":{"ha":814,"x_min":0,"x_max":0,"o":"m 783 596 l 665 599 l 654 253 l 126 781 l 42 697 l 569 169 l 225 158 l 226 40 l 763 61 z "},"↓":{"ha":869,"x_min":0,"x_max":0,"o":"m 828 308 l 746 393 l 494 157 l 494 904 l 375 904 l 375 157 l 124 393 l 42 308 l 435 -56 z "},"↙":{"ha":814,"x_min":0,"x_max":0,"o":"m 28 596 l 49 61 l 585 40 l 586 158 l 242 169 l 769 697 l 685 781 l 157 253 l 146 599 z "},"←":{"ha":1043,"x_min":0,"x_max":0,"o":"m 406 51 l 490 132 l 254 383 l 1001 383 l 1001 503 l 254 503 l 490 756 l 406 836 l 42 443 z "},"↖":{"ha":814,"x_min":0,"x_max":0,"o":"m 28 299 l 146 296 l 157 642 l 685 114 l 769 197 l 242 725 l 586 736 l 585 854 l 49 833 z "},"↔":{"ha":1583,"x_min":0,"x_max":0,"o":"m 1178 836 l 1093 756 l 1329 503 l 254 503 l 490 756 l 406 836 l 42 443 l 406 50 l 490 132 l 254 383 l 1329 383 l 1093 132 l 1178 51 l 1542 443 z "},"↕":{"ha":869,"x_min":0,"x_max":0,"o":"m 494 -33 l 494 879 l 746 643 l 828 728 l 435 1092 l 42 728 l 124 643 l 375 879 l 375 -33 l 124 203 l 42 118 l 435 -246 l 828 118 l 746 203 z "},"◊":{"ha":781,"x_min":0,"x_max":0,"o":"m 32 497 l 313 0 l 469 0 l 749 496 l 468 993 l 311 993 z m 393 136 l 390 136 l 192 499 l 388 857 l 390 857 l 589 493 z "},"@":{"ha":1235,"x_min":0,"x_max":0,"o":"m 935 110 b 1190 449 1057 110 1190 189 b 632 992 1190 746 983 992 b 47 414 290 992 47 729 b 618 -149 47 71 281 -149 b 906 -89 718 -149 814 -136 l 867 0 b 618 -42 785 -33 704 -42 b 161 414 351 -42 161 140 b 632 885 161 660 350 885 b 1081 444 911 885 1081 694 b 944 215 1081 290 1026 215 b 860 360 878 215 847 265 l 904 708 l 778 708 l 764 606 l 761 606 b 579 718 736 667 671 718 b 324 403 439 718 324 594 b 551 115 324 221 425 115 b 739 222 647 115 703 157 l 742 222 b 935 110 779 151 846 110 z m 581 231 b 449 396 488 231 449 301 b 607 603 449 517 506 603 b 739 438 683 603 739 549 b 581 231 739 321 688 231 z "},"&":{"ha":864,"x_min":0,"x_max":0,"o":"m 871 0 l 715 189 b 815 478 771 278 803 383 l 678 478 b 624 300 668 417 650 356 l 442 519 b 647 776 572 594 647 664 b 393 1014 647 893 553 1015 b 139 776 222 1013 139 893 b 256 532 139 683 186 617 b 47 244 151 471 47 392 b 358 -21 47 93 156 -21 b 625 81 468 -21 557 19 l 692 0 z m 393 876 b 506 767 467 876 506 826 b 374 600 506 694 456 650 b 281 767 321 661 281 711 b 393 876 281 826 321 876 z m 368 117 b 197 258 256 117 197 183 b 322 451 197 333 239 396 l 540 185 b 368 117 494 143 438 117 z "},"¶":{"ha":786,"x_min":0,"x_max":0,"o":"m 375 465 l 375 0 l 485 0 l 485 878 l 589 878 l 589 0 l 699 0 l 699 993 l 313 993 b 39 725 133 993 39 892 b 313 465 39 558 133 465 z "},"§":{"ha":828,"x_min":0,"x_max":0,"o":"m 790 326 b 492 613 790 463 654 524 b 279 810 404 661 279 722 b 410 899 279 863 314 899 b 554 775 535 899 549 833 l 701 775 b 411 1014 694 901 614 1014 b 133 797 224 1014 133 918 b 196 635 133 729 158 678 b 39 443 94 607 39 540 b 338 157 39 297 175 247 b 550 -40 424 108 550 47 b 419 -129 550 -93 515 -129 b 275 -6 294 -129 281 -64 l 128 -6 b 418 -244 135 -132 215 -244 b 696 -28 606 -244 696 -149 b 635 133 696 39 671 90 b 790 326 733 160 790 226 z m 540 211 b 421 279 500 238 458 258 b 186 469 283 351 186 389 b 289 558 186 515 215 544 b 408 490 329 532 371 511 b 643 300 546 418 643 371 b 540 211 643 254 614 225 z "},"©":{"ha":1135,"x_min":0,"x_max":0,"o":"m 568 -22 b 1079 496 882 -22 1079 199 b 568 1015 1079 793 882 1015 b 56 496 254 1015 56 793 b 568 -22 56 199 254 -22 z m 568 38 b 129 496 296 38 129 242 b 568 956 129 751 296 956 b 1006 496 839 956 1006 751 b 568 38 1006 242 839 38 z m 714 581 l 838 581 b 565 808 824 707 726 808 b 283 496 385 808 283 678 b 576 185 283 313 390 185 b 838 414 735 185 829 286 l 714 414 b 569 294 708 371 681 294 b 408 496 446 294 408 386 b 569 699 408 607 446 699 b 714 581 681 699 708 618 z "},"®":{"ha":735,"x_min":0,"x_max":0,"o":"m 368 343 b 699 679 553 343 699 486 b 368 1015 699 872 553 1015 b 36 679 182 1015 36 872 b 368 343 36 486 182 343 z m 368 403 b 100 679 214 403 100 517 b 368 956 100 840 214 956 b 635 679 521 956 635 840 b 368 403 635 517 521 403 z m 238 503 l 307 503 l 307 642 l 367 642 b 443 503 463 642 428 518 l 517 503 l 517 507 b 446 668 497 513 528 653 l 446 669 b 513 758 486 679 513 708 b 390 861 513 824 464 861 l 238 861 z m 307 800 l 368 800 b 442 751 406 800 442 799 b 368 701 442 704 406 701 l 307 701 z "},"™":{"ha":914,"x_min":0,"x_max":0,"o":"m 164 908 l 164 610 l 257 610 l 257 908 l 376 908 l 376 993 l 44 993 l 44 908 z m 428 993 l 428 610 l 515 610 l 515 885 l 518 885 l 600 610 l 679 610 l 763 885 l 765 885 l 765 610 l 856 610 l 856 993 l 725 993 l 640 732 l 639 732 l 557 993 z "},"°":{"ha":514,"x_min":0,"x_max":0,"o":"m 257 593 b 468 804 396 593 468 704 b 257 1014 468 903 396 1014 b 46 804 117 1014 46 903 b 257 593 46 704 117 593 z m 257 686 b 143 804 190 686 143 732 b 257 921 143 875 190 921 b 372 804 324 921 372 875 b 257 686 372 732 324 686 z "},"|":{"ha":311,"x_min":0,"x_max":0,"o":"m 99 1038 l 99 -182 l 214 -182 l 214 1038 z "},"¦":{"ha":311,"x_min":0,"x_max":0,"o":"m 99 1038 l 99 533 l 214 533 l 214 1038 z m 99 340 l 99 -182 l 214 -182 l 214 340 z "},"†":{"ha":743,"x_min":0,"x_max":0,"o":"m 292 575 l 292 -246 l 453 -246 l 453 575 l 696 575 l 696 711 l 453 711 l 453 993 l 292 993 l 292 711 l 47 711 l 47 575 z "},"‡":{"ha":743,"x_min":0,"x_max":0,"o":"m 292 131 l 292 -246 l 453 -246 l 453 131 l 696 131 l 696 267 l 453 267 l 453 575 l 696 575 l 696 711 l 453 711 l 453 993 l 292 993 l 292 711 l 47 711 l 47 575 l 292 575 l 292 267 l 47 267 l 47 131 z "},"^":{"ha":635,"x_min":0,"x_max":0,"o":"m 254 993 l 13 611 l 165 611 l 317 863 l 318 863 l 471 611 l 622 611 l 382 993 z "},"̈":{"ha":0,"x_min":0,"x_max":0,"o":"m -442 925 b -360 846 -442 883 -412 846 b -279 925 -308 846 -279 883 b -360 1007 -279 969 -308 1007 b -442 925 -412 1007 -442 969 z m -204 925 b -122 846 -204 883 -175 846 b -42 925 -71 846 -42 883 b -122 1007 -42 969 -71 1007 b -204 925 -175 1007 -204 969 z "},"̇":{"ha":0,"x_min":0,"x_max":0,"o":"m -204 925 b -122 846 -204 883 -175 846 b -42 925 -71 846 -42 883 b -122 1007 -42 969 -71 1007 b -204 925 -175 1007 -204 969 z "},"̀":{"ha":0,"x_min":0,"x_max":0,"o":"m -101 1004 l -271 1004 l -156 822 l -42 822 z "},"́":{"ha":0,"x_min":0,"x_max":0,"o":"m -211 1004 l -271 822 l -157 822 l -42 1004 z "},"̋":{"ha":0,"x_min":0,"x_max":0,"o":"m -443 1004 l -503 822 l -389 822 l -274 1004 z m -211 1004 l -271 822 l -157 822 l -42 1004 z "},"̂":{"ha":0,"x_min":0,"x_max":0,"o":"m -465 824 l -328 824 l -256 933 l -253 933 l -179 824 l -42 824 l -176 1006 l -331 1006 z "},"̌":{"ha":0,"x_min":0,"x_max":0,"o":"m -465 1004 l -331 822 l -176 822 l -42 1004 l -179 1004 l -253 894 l -256 894 l -328 1004 z "},"̆":{"ha":0,"x_min":0,"x_max":0,"o":"m -232 817 b -42 1004 -122 817 -47 885 l -139 1004 b -232 917 -143 946 -172 917 b -326 1004 -292 917 -322 946 l -424 1004 b -232 817 -419 881 -340 817 z "},"̊":{"ha":0,"x_min":0,"x_max":0,"o":"m -169 804 b -42 931 -100 804 -42 853 b -169 1058 -42 1006 -100 1058 b -297 931 -239 1058 -297 1006 b -169 804 -297 853 -239 804 z m -169 865 b -232 931 -203 865 -232 890 b -169 996 -232 971 -203 996 b -107 931 -136 996 -107 971 b -169 865 -107 890 -136 865 z "},"̃":{"ha":0,"x_min":0,"x_max":0,"o":"m -453 853 l -360 853 b -324 901 -360 872 -356 901 b -151 850 -281 901 -218 850 b -42 999 -90 850 -42 890 l -136 999 b -172 950 -136 978 -140 950 b -344 1001 -214 950 -278 1001 b -453 853 -404 1001 -453 958 z "},"̄":{"ha":0,"x_min":0,"x_max":0,"o":"m -412 972 l -412 861 l -42 861 l -42 972 z "},"̒":{"ha":0,"x_min":0,"x_max":0,"o":"m -111 943 b -35 1032 -111 990 -81 1024 l -35 1090 b -187 913 -149 1074 -187 982 b -97 792 -187 843 -157 792 b -21 872 -54 792 -21 825 b -111 943 -21 931 -62 957 z "},"̦":{"ha":0,"x_min":0,"x_max":0,"o":"m -119 -228 b -196 -307 -119 -275 -149 -299 l -196 -365 b -42 -196 -81 -349 -42 -267 b -129 -76 -42 -128 -71 -76 b -208 -158 -172 -76 -208 -111 b -119 -228 -208 -215 -168 -242 z "},"̧":{"ha":0,"x_min":0,"x_max":0,"o":"m -124 -11 l -197 -11 l -276 -110 l -257 -139 b -204 -129 -243 -133 -219 -129 b -139 -167 -161 -129 -139 -140 b -211 -214 -139 -196 -172 -214 b -312 -193 -251 -214 -282 -206 l -346 -233 b -194 -274 -311 -257 -254 -274 b -39 -168 -114 -274 -39 -235 b -179 -82 -39 -96 -118 -74 l -179 -79 z "},"̨":{"ha":0,"x_min":0,"x_max":0,"o":"m -139 -246 b -42 -232 -106 -246 -69 -240 l -42 -135 b -106 -147 -61 -142 -81 -147 b -154 -108 -133 -147 -154 -133 b -71 0 -154 -78 -124 -42 l -172 0 b -275 -139 -221 -21 -275 -74 b -139 -246 -275 -204 -229 -246 z "},"̵":{"ha":0,"x_min":0,"x_max":0,"o":"m -42 567 l -626 567 l -626 461 l -42 461 z "},"̶":{"ha":0,"x_min":0,"x_max":0,"o":"m -42 575 l -754 575 l -754 425 l -42 425 z "},"̷":{"ha":0,"x_min":0,"x_max":0,"o":"m -781 38 l -96 725 l -44 674 l -731 -14 z "},"̸":{"ha":0,"x_min":0,"x_max":0,"o":"m -781 38 l -96 725 l -44 674 l -731 -14 z "},"´":{"ha":672,"x_min":0,"x_max":0,"o":"m 335 1004 l 275 822 l 389 822 l 504 1004 z "},"˘":{"ha":693,"x_min":0,"x_max":0,"o":"m 356 817 b 546 1004 465 817 540 885 l 449 1004 b 356 917 444 946 415 917 b 261 1004 296 917 265 946 l 164 1004 b 356 817 168 881 247 817 z "},"ˇ":{"ha":694,"x_min":0,"x_max":0,"o":"m 136 1004 l 271 822 l 425 822 l 560 1004 l 422 1004 l 349 894 l 346 894 l 274 1004 z "},"¸":{"ha":697,"x_min":0,"x_max":0,"o":"m 388 -11 l 314 -11 l 235 -110 l 254 -139 b 307 -129 268 -133 292 -129 b 372 -167 350 -129 372 -140 b 300 -214 372 -196 339 -214 b 199 -193 260 -214 229 -206 l 165 -233 b 317 -274 200 -257 257 -274 b 472 -168 397 -274 472 -235 b 332 -82 472 -96 393 -74 l 332 -79 z "},"ˆ":{"ha":600,"x_min":0,"x_max":0,"o":"m 136 824 l 274 824 l 346 933 l 349 933 l 422 824 l 560 824 l 425 1006 l 271 1006 z "},"¨":{"ha":697,"x_min":0,"x_max":0,"o":"m 149 925 b 231 846 149 883 178 846 b 311 925 282 846 311 883 b 231 1007 311 969 282 1007 b 149 925 178 1007 149 969 z m 386 925 b 468 846 386 883 415 846 b 549 925 519 846 549 883 b 468 1007 549 969 519 1007 b 386 925 415 1007 386 969 z "},"˙":{"ha":708,"x_min":0,"x_max":0,"o":"m 272 925 b 354 846 272 883 301 846 b 435 925 406 846 435 883 b 354 1007 435 969 406 1007 b 272 925 301 1007 272 969 z "},"`":{"ha":906,"x_min":0,"x_max":0,"o":"m 338 1004 l 168 1004 l 283 822 l 397 822 z "},"˝":{"ha":747,"x_min":0,"x_max":0,"o":"m 232 1004 l 172 822 l 286 822 l 401 1004 z m 464 1004 l 404 822 l 518 822 l 633 1004 z "},"¯":{"ha":694,"x_min":0,"x_max":0,"o":"m 163 972 l 163 861 l 533 861 l 533 972 z "},"˛":{"ha":699,"x_min":0,"x_max":0,"o":"m 311 -246 b 408 -232 344 -246 381 -240 l 408 -135 b 344 -147 389 -142 369 -147 b 296 -108 317 -147 296 -133 b 379 0 296 -78 326 -42 l 278 0 b 175 -139 229 -21 175 -74 b 311 -246 175 -204 221 -246 z "},"˚":{"ha":704,"x_min":0,"x_max":0,"o":"m 351 804 b 479 931 421 804 479 853 b 351 1058 479 1006 421 1058 b 224 931 282 1058 224 1006 b 351 804 224 853 282 804 z m 351 865 b 289 931 318 865 289 890 b 351 996 289 971 318 996 b 414 931 385 996 414 971 b 351 865 414 890 385 865 z "},"˜":{"ha":694,"x_min":0,"x_max":0,"o":"m 142 853 l 235 853 b 271 901 235 872 239 901 b 443 850 314 901 376 850 b 553 999 504 850 553 890 l 458 999 b 422 950 458 978 454 950 b 250 1001 381 950 317 1001 b 142 853 190 1001 142 958 z "}}}
